<svg id="visual" viewBox="0 0 900 600" width="900" height="600" xmlns="http://www.w3.org/2000/svg" xmlns:xlink="http://www.w3.org/1999/xlink" version="1.1"><rect x="0" y="0" width="900" height="600" fill="#FFFFFF"></rect><g transform="translate(479.2783012497134 367.2425757647949)"><path d="M139.7 -166.5C194.5 -120.5 261.7 -89.2 291.4 -34.5C321.2 20.2 313.4 98.3 268.2 134.4C223 170.5 140.4 164.6 79.4 162.7C18.4 160.9 -20.9 163.1 -95.5 174.2C-170 185.3 -279.9 205.1 -330.2 166.9C-380.6 128.7 -371.5 32.4 -352.9 -60.4C-334.4 -153.2 -306.4 -242.4 -246 -287.4C-185.6 -332.5 -92.8 -333.2 -25.2 -303.2C42.4 -273.2 84.8 -212.5 139.7 -166.5" fill="#3B82F6"></path></g></svg>