<svg xmlns="http://www.w3.org/2000/svg" viewBox="0 0 500 500"><g id="freepik--Shapes--inject-109"><g id="freepik--Background--inject-109"><path d="M391.36,223.75c-7.64-21.65-16.64-28.08-31.4-44.86-16.53-18.77-27.91-48.89-43.31-68.39-16.26-20.6-45.22-31.66-75.72-32.63-26-.82-54.67,6.65-75.14,21.87a149.44,149.44,0,0,0-48.37,62.42c-14.85,35.66-16.07,76.77.78,113.08,13.94,30,42.42,51.35,73.43,63,60.92,22.8,101.56,17.6,145.62-2.58,19.38-8.87,37.93-26.38,48.32-45C392.91,277.5,399.24,246.06,391.36,223.75Z" style="fill:#3B82F6;opacity:0.07"></path><path d="M51.86,209.22c-15.64,11.91-9.69,36.7-14.49,54.13-4.47,15.51-12.7,25.44-17.95,40.59-5.55,16-5.73,33.33,1.11,48.58s22.3,27.4,37.69,33.24c16.23,6.16,33.51,5.42,50.35,2.46,24.56-4.32,40.81-16.56,54.7-38.35,11.49-18,13.18-40.91,8.72-61.81-8.77-41.05-25.72-61.34-52-78.29-11.56-7.46-27.52-11.47-41.25-10.65A48,48,0,0,0,51.86,209.22Z" style="fill:#3B82F6;opacity:0.07"></path><path d="M419.16,412.43A39.61,39.61,0,0,0,429.33,406c11.15-9.76,15.67-24.48,23.1-36.84,8.32-13.83,22.51-22.36,31.5-35.64,9.49-14,11.93-32.32,9.26-48.82s-14.78-32.32-28.14-41.94a96.35,96.35,0,0,0-47.84-17.55c-24.84-2.16-50.36,5.12-69.4,22.58-15.75,14.44-23.29,36.12-24.37,57.47-2.12,41.92,9,65.9,30,89.06,9.25,10.18,23.63,18.17,37.11,20.93A48,48,0,0,0,419.16,412.43Z" style="fill:#3B82F6;opacity:0.07"></path><path d="M342.42,108.07c4.27,3.34,11.11,3.93,14-1.73a17.15,17.15,0,0,0,1.39-8.46c-.92-22.36-23-47.47-46.95-40.52-3.14.91-6.39,2.56-7.72,5.55s-.33,6.67,1.64,9.33c4.81,6.51,11.79,11,17.92,16.09a165.75,165.75,0,0,1,18.27,18.35A11.57,11.57,0,0,0,342.42,108.07Z" style="fill:#3B82F6;opacity:0.07"></path><path d="M46,183.16a10.33,10.33,0,0,1,0-3.72c2-10.28,13.93-15.46,23.28-15.8,7.16-.26,14.69,1.32,20,6.37,4.74,4.49,4.07,10.65-2.34,13-5.9,2.15-12.67,1.66-18.8,2.9-5.25,1.07-11.38,5.76-16.82,4C48.39,189,46.51,186.21,46,183.16Z" style="fill:#3B82F6;opacity:0.07"></path><path d="M462.33,210.58a11.57,11.57,0,0,0,0-4.15c-2.26-11.46-15.62-17.18-26.05-17.51-8-.26-16.38,1.54-22.29,7.2-5.27,5-4.49,11.91,2.66,14.48,6.6,2.37,13.7,2.56,20.55,3.92,5.86,1.16,13.16,5.58,19.23,3.62C459.65,217.09,461.73,214,462.33,210.58Z" style="fill:#3B82F6;opacity:0.07"></path></g></g><g id="freepik--hand-2--inject-109"><g id="freepik--Hand--inject-109"><g id="freepik--Glass--inject-109"><path d="M349.6,331c-14.43-4.15-34.89.93-45.7,11.35-5.41,5.21-7.37,10.76-6.19,15.54.14.53.22.87.35,1.39,1.18,4.79,5.52,8.78,12.74,10.86,14.43,4.16,34.89-.92,45.7-11.34,5.4-5.2,7.36-10.75,6.19-15.52-.14-.54-.23-.9-.36-1.43C361.15,337.07,356.81,333.08,349.6,331Z" style="fill:#3B82F6"></path><path d="M349.6,331c-14.43-4.15-34.89.93-45.7,11.35-5.41,5.21-7.37,10.76-6.19,15.54.14.53.22.87.35,1.39,1.18,4.79,5.52,8.78,12.74,10.86,14.43,4.16,34.89-.92,45.7-11.34,5.4-5.2,7.36-10.75,6.19-15.52-.14-.54-.23-.9-.36-1.43C361.15,337.07,356.81,333.08,349.6,331Z" style="fill:#fff;opacity:0.30000000000000004"></path><path d="M310.45,368.73c-14.43-4.15-17.36-16-6.55-26.38s31.27-15.5,45.7-11.35,17.36,16,6.55,26.39S324.88,372.89,310.45,368.73Z" style="fill:#3B82F6"></path><path d="M310.45,368.73c-14.43-4.15-17.36-16-6.55-26.38s31.27-15.5,45.7-11.35,17.36,16,6.55,26.39S324.88,372.89,310.45,368.73Z" style="fill:#fff;opacity:0.55"></path><path d="M321.88,344.51c-5.47,2.71-6.19,7.68-2.13,9.75,6.17,3.16,18,0,20-6.06Z" style="fill:#3B82F6;opacity:0.30000000000000004"></path><path d="M340.51,332.3c9.46,0,22.06,13.77,7.2,25-10.88,8.25-33.32,10.93-37.27,9.34,5.73,1.8,22.58,3.68,38.75-6.53C370.22,346.85,356.69,329.69,340.51,332.3Z" style="fill:#fff;opacity:0.30000000000000004"></path><path d="M310.48,158.12,284,164.66l-26.42,6.58s6.6,49.38,12.77,71.88a32.12,32.12,0,0,0,22.55,23.22,23.31,23.31,0,0,1,16.49,16.75l13.91,56a5,5,0,0,1-1.26,4.68,11.89,11.89,0,0,0-2.83,4.74c0,.12-.07.24-.09.36-.55,2.31.9,4.4,4.1,5.33A16.85,16.85,0,0,0,338,350.55c2.4-2.32,2.7-4.84,1.15-6.63-.15-.16-.31-.32-.48-.47a11.83,11.83,0,0,0-4.47-2.66,5,5,0,0,1-3.34-3.56l-13.91-56a23.35,23.35,0,0,1,6.75-22.52,32.13,32.13,0,0,0,9.08-31.07C327.73,204.86,310.48,158.12,310.48,158.12Z" style="fill:#3B82F6"></path><path d="M310.48,158.12,284,164.66l-26.42,6.58s6.6,49.38,12.77,71.88a32.12,32.12,0,0,0,22.55,23.22,23.31,23.31,0,0,1,16.49,16.75l13.91,56a5,5,0,0,1-1.26,4.68,11.89,11.89,0,0,0-2.83,4.74c0,.12-.07.24-.09.36-.55,2.31.9,4.4,4.1,5.33A16.85,16.85,0,0,0,338,350.55c2.4-2.32,2.7-4.84,1.15-6.63-.15-.16-.31-.32-.48-.47a11.83,11.83,0,0,0-4.47-2.66,5,5,0,0,1-3.34-3.56l-13.91-56a23.35,23.35,0,0,1,6.75-22.52,32.13,32.13,0,0,0,9.08-31.07C327.73,204.86,310.48,158.12,310.48,158.12Z" style="fill:#fff;opacity:0.5"></path><path d="M298.7,265.83c-6.48-1.48-12.68-1.81-19.56-7.45a32.22,32.22,0,0,0,13.8,8,23.31,23.31,0,0,1,16.49,16.75C306.7,272.07,305.23,267.32,298.7,265.83Z" style="fill:#3B82F6;opacity:0.2"></path><path d="M308.22,262.06c-15.93,3.95-32-5.5-35.89-21.06l0-.06c-5.21-19-10.74-58.43-12-67.9L284.62,167,309,161c3.29,9,16.84,46.4,21.12,65.64v.05C334,242.22,324.15,258.11,308.22,262.06Z" style="fill:#3B82F6"></path><path d="M308.22,262.06c-15.93,3.95-32-5.5-35.89-21.06l0-.06c-5.21-19-10.74-58.43-12-67.9L284.62,167,309,161c3.29,9,16.84,46.4,21.12,65.64v.05C334,242.22,324.15,258.11,308.22,262.06Z" style="fill:#fff;opacity:0.30000000000000004"></path><path d="M287.26,177.6c-6.66,1.65-13.25,1.72-18.56.19-4.85-1.39-8-3.93-8.76-7.14s.77-6.91,4.4-10.41c4-3.84,9.84-6.86,16.49-8.51s13.25-1.72,18.56-.19c4.85,1.39,8,3.93,8.76,7.14s-.77,6.91-4.4,10.41C299.77,172.93,293.91,176,287.26,177.6Z" style="fill:#3B82F6"></path><path d="M287.26,177.6c-6.66,1.65-13.25,1.72-18.56.19-4.85-1.39-8-3.93-8.76-7.14s.77-6.91,4.4-10.41c4-3.84,9.84-6.86,16.49-8.51s13.25-1.72,18.56-.19c4.85,1.39,8,3.93,8.76,7.14s-.77,6.91-4.4,10.41C299.77,172.93,293.91,176,287.26,177.6Z" style="fill:#fff;opacity:0.4"></path><path d="M299.83,174.63c9.64,30.37,18.35,52,17.18,66.32-.75,9.09-9.72,17.36-6.73,29.39s15,60.28,16.6,66.86c1.31,5.27,2.68,6.08,4.53,8.5s-.57,6.71-6.69,7c2.08.91,8.88.06,11.77-2.69s1.7-5.8-1.9-7.65c-3.16-1.64-4.07-.26-6.22-8.93S315.11,280,314,275.61c-2.43-9.78.34-13.75,6-22.67,7.69-12.19,5.77-21.9,1.82-35.53s-15.25-47.78-15.25-47.78Z" style="fill:#fff;opacity:0.30000000000000004"></path><path d="M329.16,226.82v.06c3.73,15.06-5.76,30.42-21.18,34.25s-31-5.31-34.74-20.37l0-.07c-2.48-9.05-5.06-22.92-7.2-35.87,0-.12,0-.24-.06-.37-.46-3.52,2.17-7.18,7.88-10,10.48-5.24,27.5-5.86,38.62-1.51.58.25,1.15.52,1.71.8,3.86,2,6.31,4.29,7.35,6.68.1.21.18.42.26.64s.06.18.08.26C324.89,210.71,327.63,220,329.16,226.82Z" style="fill:#3B82F6"></path><path d="M329.16,226.82v.06c3.73,15.06-5.76,30.42-21.18,34.25s-31-5.31-34.74-20.37l0-.07c-2.48-9.05-5.06-22.92-7.2-35.87,0-.12,0-.24-.06-.37-.46-3.52,2.17-7.18,7.88-10,10.48-5.24,27.5-5.86,38.62-1.51.58.25,1.15.52,1.71.8,3.86,2,6.31,4.29,7.35,6.68.1.21.18.42.26.64s.06.18.08.26C324.89,210.71,327.63,220,329.16,226.82Z" style="fill:#fff;opacity:0.85"></path><path d="M321.81,217.41c-1.63-5.63-4.52-14.78-7.35-23.57l-.28-.15c-.56-.28-1.13-.55-1.71-.8a40.1,40.1,0,0,0-7.35-2C312.4,212.88,318,229.33,317,241c-.52,6.38-5.09,12.36-6.74,19.51h0a29.57,29.57,0,0,0,3.7-1.52l.2-.1c.81-.41,1.6-.86,2.36-1.34l.26-.16.69-.46.05,0c.74-1.21,1.55-2.49,2.45-3.9C327.68,240.75,325.76,231,321.81,217.41Z" style="fill:#fff;opacity:0.5"></path><path d="M321.53,200.37a.29.29,0,0,0,0-.09c0-.09-.07-.17-.11-.26a8.53,8.53,0,0,0-1.68-2.57h0l-.07-.07a12.66,12.66,0,0,0-1.12-1.06c-7.67-6.77-21-8.34-29.94-8-2.77.11-5.91-.14-7.31-1.62-1.2-1.25-.38-2.69-1.47-3.55s-2.45.34-3.08,1.26c-.93,1.52-2.37,1.35-2.16-1.91.1-1.44,1-4.71.19-6.43a2,2,0,0,0-3.17-.82C265,180.2,263.09,205,268,208.6l.06.05a18.22,18.22,0,0,0,6.28,4.16c11.07,4.78,28.79,4.28,39.57-1.12C320.37,208.49,322.88,204.26,321.53,200.37Z" style="fill:#fafafa"></path><path d="M304.77,189.82c2.76,8.35,5.29,15.91,7.32,22.71q1-.39,1.86-.84a20.35,20.35,0,0,0,5.08-3.46c-1.43-4.59-3.08-9.76-4.71-14.81A40,40,0,0,0,304.77,189.82Z" style="fill:#fff"></path><path d="M300.05,149.24c-11.8-3.4-28.53.76-37.37,9.27s-6.45,18.19,5.35,21.58,28.54-.76,37.38-9.27S311.85,152.64,300.05,149.24Zm3.7,19.85c-4,3.84-9.84,6.85-16.5,8.51s-13.24,1.72-18.55.2c-4.86-1.4-8-3.94-8.76-7.15s.77-6.91,4.4-10.41c4-3.84,9.84-6.86,16.5-8.51s13.24-1.72,18.56-.2c4.84,1.4,8,3.94,8.75,7.15S307.38,165.59,303.75,169.09Z" style="fill:#3B82F6"></path><path d="M300.05,149.24c-11.8-3.4-28.53.76-37.37,9.27s-6.45,18.19,5.35,21.58,28.54-.76,37.38-9.27S311.85,152.64,300.05,149.24Zm3.7,19.85c-4,3.84-9.84,6.85-16.5,8.51s-13.24,1.72-18.55.2c-4.86-1.4-8-3.94-8.76-7.15s.77-6.91,4.4-10.41c4-3.84,9.84-6.86,16.5-8.51s13.24-1.72,18.56-.2c4.84,1.4,8,3.94,8.75,7.15S307.38,165.59,303.75,169.09Z" style="fill:#fff;opacity:0.7000000000000001"></path><path d="M309.77,164.78c-5.38,11.05-24,17.58-38.53,15.07s-13.89-11.24-13.19-14.63c-2.34,6.39,1.23,12.36,10,14.87,11.8,3.4,28.54-.76,37.38-9.27A18.77,18.77,0,0,0,309.77,164.78Z" style="fill:#fff;opacity:0.7000000000000001"></path><path d="M276.85,172.69a1.47,1.47,0,0,0,.31-2,1.73,1.73,0,0,0-1.83-.77,1.66,1.66,0,0,0-.51,3.06A1.89,1.89,0,0,0,276.85,172.69Z" style="fill:#fff"></path><path d="M303.91,230.4a1.48,1.48,0,0,1,.28,1.79,1.58,1.58,0,0,1-1.62.86,1.48,1.48,0,1,0,1.34-2.65Z" style="fill:#fff;opacity:0.6000000000000001"></path><path d="M303.18,230.34a1.37,1.37,0,0,1,.69.15,1.4,1.4,0,0,1,.61,1.87,1.42,1.42,0,0,1-1.18.76,1.47,1.47,0,0,1-.68-.15,1.4,1.4,0,0,1-.7-.81,1.44,1.44,0,0,1,.08-1.06,1.39,1.39,0,0,1,1.18-.76m0-.09a1.46,1.46,0,0,0-1.26.81,1.48,1.48,0,0,0,.65,2,1.48,1.48,0,1,0,1.34-2.65,1.43,1.43,0,0,0-.73-.15Z" style="fill:#fff"></path><path d="M302.84,230.7a1.12,1.12,0,0,0-.71,1.31c0,.08.15.17.23.09s.17-.27.29-.38a1.28,1.28,0,0,1,.38-.24c.31-.09.51-.09.62-.37S303.43,230.42,302.84,230.7Z" style="fill:#fff;opacity:0.5"></path><path d="M303.51,230.89a.22.22,0,0,1-.16.27.22.22,0,0,1-.11-.43A.22.22,0,0,1,303.51,230.89Z" style="fill:#fff;opacity:0.6000000000000001"></path><path d="M274.35,216a2.08,2.08,0,0,1,.4,2.53,2.26,2.26,0,0,1-2.3,1.23,2.11,2.11,0,1,0,1.9-3.76Z" style="fill:#fff;opacity:0.6000000000000001"></path><path d="M273.32,215.91a1.84,1.84,0,0,1,1,.21,2,2,0,0,1,1,1.14,2,2,0,0,1-1.79,2.59,2.06,2.06,0,0,1-1-.21,2,2,0,0,1-1-1.15,1.91,1.91,0,0,1,.11-1.5,2,2,0,0,1,1.68-1.08m0-.14a2.11,2.11,0,0,0-.86,4,2,2,0,0,0,1,.22,2.1,2.1,0,0,0,.86-4,2.13,2.13,0,0,0-1-.23Z" style="fill:#fff"></path><path d="M272.84,216.41a1.61,1.61,0,0,0-1,1.87c0,.11.22.24.33.12s.24-.38.42-.54a1.39,1.39,0,0,1,.53-.33c.44-.13.72-.14.88-.54S273.67,216,272.84,216.41Z" style="fill:#fff;opacity:0.5"></path><path d="M273.79,216.69a.33.33,0,0,1-.24.39.32.32,0,0,1-.38-.24.31.31,0,0,1,.23-.38A.32.32,0,0,1,273.79,216.69Z" style="fill:#fff;opacity:0.6000000000000001"></path><path d="M293.23,219.78a1.59,1.59,0,0,1,.22,1.93,1.73,1.73,0,0,1-1.79.85,1.6,1.6,0,1,0,1.57-2.78Z" style="fill:#fff;opacity:0.6000000000000001"></path><path d="M292.45,219.68a1.42,1.42,0,0,1,.73.19,1.49,1.49,0,0,1,.57,2,1.51,1.51,0,0,1-1.31.76,1.59,1.59,0,0,1-.73-.19,1.5,1.5,0,0,1-.56-2,1.48,1.48,0,0,1,1.3-.75m0-.11a1.58,1.58,0,0,0-1.39.81,1.61,1.61,0,0,0,.6,2.18,1.59,1.59,0,0,0,.78.2,1.61,1.61,0,0,0,1.4-.81,1.59,1.59,0,0,0-.61-2.17,1.58,1.58,0,0,0-.78-.21Z" style="fill:#fff"></path><path d="M292.07,220a1.21,1.21,0,0,0-.83,1.38c0,.08.16.19.24.1s.19-.27.34-.39a1.11,1.11,0,0,1,.41-.23c.34-.08.55-.09.69-.38S292.72,219.77,292.07,220Z" style="fill:#fff;opacity:0.5"></path><path d="M292.78,220.29a.25.25,0,0,1-.19.28.24.24,0,0,1-.28-.19.24.24,0,1,1,.47-.09Z" style="fill:#fff;opacity:0.6000000000000001"></path><path d="M302,219.52a.91.91,0,0,1,.17,1.1,1,1,0,0,1-1,.53.93.93,0,0,0,1.23-.41A.9.9,0,0,0,302,219.52Z" style="fill:#fff;opacity:0.6000000000000001"></path><path d="M301.54,219.48a.78.78,0,0,1,.42.09.85.85,0,0,1-.35,1.61.78.78,0,0,1-.42-.09.85.85,0,0,1,.35-1.61m0-.06a.9.9,0,0,0-.78.5.9.9,0,0,0,.85,1.32.91.91,0,0,0,.38-1.72.82.82,0,0,0-.45-.1Z" style="fill:#fff"></path><path d="M301.33,219.7a.68.68,0,0,0-.44.8c0,.05.09.11.14.06s.1-.17.18-.24a.72.72,0,0,1,.24-.14c.19-.06.31-.06.38-.23S301.69,219.52,301.33,219.7Z" style="fill:#fff;opacity:0.5"></path><path d="M301.74,219.82a.13.13,0,0,1-.1.16.15.15,0,0,1-.17-.1.15.15,0,0,1,.11-.17A.14.14,0,0,1,301.74,219.82Z" style="fill:#fff;opacity:0.6000000000000001"></path><path d="M292.21,232.35a1.07,1.07,0,0,1,.2,1.29,1.17,1.17,0,0,1-1.17.62,1.07,1.07,0,0,0,1-1.91Z" style="fill:#fff;opacity:0.6000000000000001"></path><path d="M291.68,232.3a1.1,1.1,0,0,1,.5.11,1,1,0,0,1-.41,1.89,1,1,0,0,1-1-.69,1,1,0,0,1,.06-.76,1,1,0,0,1,.85-.55m0-.07a1.07,1.07,0,0,0-.44,2,1.1,1.1,0,0,0,.53.11,1.07,1.07,0,0,0,.44-2,1.11,1.11,0,0,0-.53-.12Z" style="fill:#fff"></path><path d="M291.44,232.56a.81.81,0,0,0-.52.95c0,.05.11.12.17.06s.12-.19.21-.28a.74.74,0,0,1,.27-.16c.23-.07.37-.07.45-.28S291.86,232.36,291.44,232.56Z" style="fill:#fff;opacity:0.5"></path><path d="M291.92,232.7a.16.16,0,0,1-.12.2.16.16,0,0,1-.19-.12.16.16,0,0,1,.12-.2A.17.17,0,0,1,291.92,232.7Z" style="fill:#fff;opacity:0.6000000000000001"></path><path d="M325.5,221.73a1.06,1.06,0,0,1,.2,1.28,1.12,1.12,0,0,1-1.16.62,1.06,1.06,0,1,0,1-1.9Z" style="fill:#fff;opacity:0.6000000000000001"></path><path d="M325,221.68a.93.93,0,0,1,.49.11,1,1,0,0,1,.44,1.34,1,1,0,0,1-.85.55.93.93,0,0,1-.49-.11,1,1,0,0,1-.44-1.34,1,1,0,0,1,.85-.55m0-.07a1.07,1.07,0,0,0-.43,2,1,1,0,0,0,.52.12,1.07,1.07,0,0,0,.91-.59,1.06,1.06,0,0,0-.47-1.43,1.11,1.11,0,0,0-.53-.12Z" style="fill:#fff"></path><path d="M324.73,221.94a.82.82,0,0,0-.52.94c0,.06.12.13.17.07s.12-.19.21-.28a1,1,0,0,1,.28-.17c.22-.06.36-.07.44-.27S325.16,221.74,324.73,221.94Z" style="fill:#fff;opacity:0.5"></path><path d="M325.21,222.08a.15.15,0,0,1-.12.19.15.15,0,0,1-.19-.12A.16.16,0,0,1,325,222,.15.15,0,0,1,325.21,222.08Z" style="fill:#fff;opacity:0.6000000000000001"></path><path d="M295.87,240.86a.78.78,0,0,1,.11.95.85.85,0,0,1-.88.42.79.79,0,1,0,.77-1.37Z" style="fill:#fff;opacity:0.6000000000000001"></path><path d="M295.49,240.81a.74.74,0,0,1,.36.09.8.8,0,0,1,.35.44.78.78,0,0,1-.07.56.72.72,0,0,1-1,.28.73.73,0,0,1,.36-1.37m0-.05a.79.79,0,0,0-.39,1.47.9.9,0,0,0,.39.1.79.79,0,0,0,.38-1.47.75.75,0,0,0-.38-.1Z" style="fill:#fff"></path><path d="M295.3,241a.6.6,0,0,0-.41.67c0,.05.08.1.12.06s.1-.14.17-.2a.49.49,0,0,1,.2-.11c.17,0,.27,0,.34-.19S295.62,240.86,295.3,241Z" style="fill:#fff;opacity:0.5"></path><path d="M295.65,241.11a.13.13,0,0,1-.09.14.12.12,0,0,1-.14-.1.13.13,0,0,1,.09-.14A.12.12,0,0,1,295.65,241.11Z" style="fill:#fff;opacity:0.6000000000000001"></path><path d="M308.51,226.14a.88.88,0,0,1,.17,1.08,1,1,0,0,1-1,.53.9.9,0,1,0,.81-1.61Z" style="fill:#fff;opacity:0.6000000000000001"></path><path d="M308.07,226.1a.78.78,0,0,1,.42.09.85.85,0,0,1,.42.49.84.84,0,0,1-.77,1.1.75.75,0,0,1-.41-.09.84.84,0,0,1,.34-1.59m0-.06a.9.9,0,0,0-.37,1.71.92.92,0,0,0,1.21-.4.9.9,0,0,0-.4-1.21,1,1,0,0,0-.44-.1Z" style="fill:#fff"></path><path d="M307.87,226.32a.67.67,0,0,0-.44.79s.09.11.14.06.1-.16.18-.24a.88.88,0,0,1,.23-.14c.19,0,.31-.06.37-.23S308.22,226.15,307.87,226.32Z" style="fill:#fff;opacity:0.5"></path><path d="M308.27,226.44a.13.13,0,0,1-.1.16.13.13,0,1,1-.06-.26A.13.13,0,0,1,308.27,226.44Z" style="fill:#fff;opacity:0.6000000000000001"></path><path d="M277.44,228.46a1.36,1.36,0,0,1,.25,1.64,1.43,1.43,0,0,1-1.49.79,1.36,1.36,0,1,0,1.24-2.43Z" style="fill:#fff;opacity:0.6000000000000001"></path><path d="M276.77,228.4a1.29,1.29,0,0,1,.63.14,1.28,1.28,0,0,1-.52,2.41,1.28,1.28,0,1,1-.11-2.55m0-.08a1.36,1.36,0,0,0,.12,2.72,1.36,1.36,0,1,0-.12-2.72Z" style="fill:#fff"></path><path d="M276.45,228.73a1.06,1.06,0,0,0-.66,1.21c0,.07.15.15.22.08a3,3,0,0,1,.27-.35,1.15,1.15,0,0,1,.35-.22c.28-.08.46-.09.56-.34S277,228.48,276.45,228.73Z" style="fill:#fff;opacity:0.5"></path><path d="M277.07,228.91a.21.21,0,1,1-.25-.15A.21.21,0,0,1,277.07,228.91Z" style="fill:#fff;opacity:0.6000000000000001"></path><path d="M313,219.69a1.5,1.5,0,0,1-.42,1.79,1.61,1.61,0,0,1-1.85.19,1.51,1.51,0,1,0,2.27-2Z" style="fill:#fff;opacity:0.6000000000000001"></path><path d="M311.79,219.27a1.41,1.41,0,0,1,1,2.47,1.4,1.4,0,0,1-2-.14,1.35,1.35,0,0,1-.34-1,1.34,1.34,0,0,1,.48-1,1.37,1.37,0,0,1,.86-.35m0-.09a1.46,1.46,0,0,0-.92.36,1.51,1.51,0,0,0-.15,2.13,1.52,1.52,0,0,0,2.12.15,1.51,1.51,0,0,0,.15-2.13,1.49,1.49,0,0,0-1.2-.51Z" style="fill:#fff"></path><path d="M311.87,219.56a1.13,1.13,0,0,0-1.17,1c0,.08.08.22.18.17a4.41,4.41,0,0,1,.43-.25,1.31,1.31,0,0,1,.44-.07c.32,0,.51.1.73-.12S312.53,219.52,311.87,219.56Z" style="fill:#fff;opacity:0.5"></path><path d="M312.43,220a.23.23,0,0,1-.26.19.23.23,0,0,1,.07-.45A.23.23,0,0,1,312.43,220Z" style="fill:#fff;opacity:0.6000000000000001"></path><path d="M317.36,228.44a1.9,1.9,0,0,1-.53,2.26,2,2,0,0,1-2.34.24,1.9,1.9,0,0,0,2.87-2.5Z" style="fill:#fff;opacity:0.6000000000000001"></path><path d="M315.84,227.91a1.78,1.78,0,0,1,1.25,3.12,1.74,1.74,0,0,1-1.09.44,1.78,1.78,0,0,1-.16-3.56m0-.12a1.82,1.82,0,0,0-1.16.46,1.9,1.9,0,0,0,1.33,3.34,1.9,1.9,0,1,0-.17-3.8Z" style="fill:#fff"></path><path d="M316,228.27a1.45,1.45,0,0,0-1.49,1.21c0,.11.11.28.24.22s.32-.24.53-.31a1.35,1.35,0,0,1,.56-.09c.41,0,.65.12.92-.16S316.78,228.23,316,228.27Z" style="fill:#fff;opacity:0.5"></path><path d="M316.65,228.83a.29.29,0,1,1-.24-.33A.29.29,0,0,1,316.65,228.83Z" style="fill:#fff;opacity:0.6000000000000001"></path><path d="M310.8,241.18a.55.55,0,0,1,.1.66.6.6,0,0,1-.6.32.55.55,0,1,0,.5-1Z" style="fill:#fff;opacity:0.6000000000000001"></path><path d="M310.53,241.15a.57.57,0,0,1,.25.06.51.51,0,0,1-.21,1,.43.43,0,0,1-.25-.05.51.51,0,0,1-.26-.3.53.53,0,0,1,0-.39.51.51,0,0,1,.44-.29m0,0a.55.55,0,0,0-.23,1,.66.66,0,0,0,.27.06.56.56,0,0,0,.47-.3.55.55,0,0,0-.24-.74.45.45,0,0,0-.27-.06Z" style="fill:#fff"></path><path d="M310.4,241.29a.4.4,0,0,0-.26.48s.05.06.08,0a1.43,1.43,0,0,1,.11-.15.39.39,0,0,1,.14-.08c.12,0,.19,0,.23-.14S310.62,241.18,310.4,241.29Z" style="fill:#fff;opacity:0.5"></path><path d="M310.65,241.36a.09.09,0,0,1-.06.1.08.08,0,1,1,0-.16A.08.08,0,0,1,310.65,241.36Z" style="fill:#fff;opacity:0.6000000000000001"></path><path d="M282.7,219.35a.55.55,0,0,1,.1.66.6.6,0,0,1-.6.32.56.56,0,0,0,.74-.25A.54.54,0,0,0,282.7,219.35Z" style="fill:#fff;opacity:0.6000000000000001"></path><path d="M282.43,219.32a.57.57,0,0,1,.25.06.52.52,0,0,1,.23.69.54.54,0,0,1-.44.28.51.51,0,0,1-.25-.06A.47.47,0,0,1,282,220a.56.56,0,0,1,0-.4.52.52,0,0,1,.44-.28m0,0a.51.51,0,0,0-.46.3.55.55,0,0,0,.24.74.57.57,0,0,0,.74-.25.54.54,0,0,0-.24-.73.46.46,0,0,0-.28-.06Z" style="fill:#fff"></path><path d="M282.3,219.45a.43.43,0,0,0-.27.49s.06.06.09,0,.06-.1.11-.14a.67.67,0,0,1,.14-.09c.11,0,.19,0,.23-.14S282.52,219.35,282.3,219.45Z" style="fill:#fff;opacity:0.5"></path><path d="M282.55,219.53a.09.09,0,0,1-.06.1.08.08,0,0,1-.1-.06.08.08,0,0,1,.06-.1A.07.07,0,0,1,282.55,219.53Z" style="fill:#fff;opacity:0.6000000000000001"></path><path d="M327.09,232.89a.55.55,0,0,1,.1.66.57.57,0,0,1-.6.32.55.55,0,1,0,.5-1Z" style="fill:#fff;opacity:0.6000000000000001"></path><path d="M326.82,232.87a.56.56,0,0,1,.25,0,.53.53,0,0,1,.23.7.5.5,0,0,1-.69.22.48.48,0,0,1-.26-.3.51.51,0,0,1,.47-.67m0,0a.55.55,0,0,0-.47.3.54.54,0,0,0,.24.74.45.45,0,0,0,.27.06.56.56,0,0,0,.47-.3.55.55,0,0,0-.24-.74.66.66,0,0,0-.27-.06Z" style="fill:#fff"></path><path d="M326.69,233a.42.42,0,0,0-.26.49s.05.06.08,0,.06-.1.11-.14a.67.67,0,0,1,.14-.09c.12,0,.19,0,.23-.14S326.91,232.9,326.69,233Z" style="fill:#fff;opacity:0.5"></path><path d="M326.94,233.07a.08.08,0,0,1-.06.1.08.08,0,0,1-.1-.06.08.08,0,0,1,.16,0Z" style="fill:#fff;opacity:0.6000000000000001"></path><path d="M284.11,240a.55.55,0,0,1,.11.66.61.61,0,0,1-.6.32.55.55,0,1,0,.49-1Z" style="fill:#fff;opacity:0.6000000000000001"></path><path d="M283.84,239.92a.58.58,0,0,1,.26.06.51.51,0,0,1,.22.69.5.5,0,0,1-.43.28.47.47,0,0,1-.26,0,.53.53,0,0,1-.25-.3.45.45,0,0,1,0-.39.51.51,0,0,1,.43-.29m0,0a.55.55,0,0,0-.22,1,.63.63,0,0,0,.27.06.58.58,0,0,0,.47-.3.56.56,0,0,0-.25-.74.43.43,0,0,0-.27-.06Z" style="fill:#fff"></path><path d="M283.72,240.06a.41.41,0,0,0-.27.48s.06.06.09,0a1.43,1.43,0,0,1,.11-.15.32.32,0,0,1,.14-.08c.11,0,.18,0,.23-.14S283.94,240,283.72,240.06Z" style="fill:#fff;opacity:0.5"></path><path d="M284,240.13a.09.09,0,0,1-.07.1.1.1,0,0,1-.1-.06.08.08,0,0,1,.07-.1A.08.08,0,0,1,284,240.13Z" style="fill:#fff;opacity:0.6000000000000001"></path><path d="M322.66,210.67a2.1,2.1,0,0,1,.4,2.53,2.24,2.24,0,0,1-2.3,1.22,2.1,2.1,0,1,0,1.9-3.75Z" style="fill:#fff;opacity:0.6000000000000001"></path><path d="M321.62,210.57a2.06,2.06,0,0,1,1,.21,2,2,0,0,1,1,1.15,1.94,1.94,0,0,1-.11,1.51,2,2,0,0,1-1.68,1.08,1.94,1.94,0,0,1-1-.22,1.91,1.91,0,0,1-1-1.14,1.94,1.94,0,0,1,.11-1.51,2,2,0,0,1,1.67-1.08m0-.13a2.1,2.1,0,0,0-.86,4,2.1,2.1,0,0,0,2.83-.92,2.11,2.11,0,0,0-.93-2.83,2,2,0,0,0-1-.23Z" style="fill:#fff"></path><path d="M321.14,211.08a1.61,1.61,0,0,0-1,1.87c.05.1.23.24.34.12s.23-.38.41-.54a1.51,1.51,0,0,1,.54-.33c.44-.13.72-.14.88-.54S322,210.69,321.14,211.08Z" style="fill:#fff;opacity:0.5"></path><path d="M322.09,211.36a.31.31,0,0,1-.61.15.31.31,0,1,1,.61-.15Z" style="fill:#fff;opacity:0.6000000000000001"></path><path d="M318.16,218.43a.55.55,0,0,1,.1.66.6.6,0,0,1-.6.32.55.55,0,0,0,.74-.25A.54.54,0,0,0,318.16,218.43Z" style="fill:#fff;opacity:0.6000000000000001"></path><path d="M317.89,218.4a.57.57,0,0,1,.25.06.53.53,0,0,1,.23.69.55.55,0,0,1-.44.28.58.58,0,0,1-.26-.06.48.48,0,0,1-.25-.29.56.56,0,0,1,0-.4.52.52,0,0,1,.44-.28m0,0a.53.53,0,0,0-.46.3.55.55,0,0,0,.24.74.66.66,0,0,0,.27.06.57.57,0,0,0,.47-.31.54.54,0,0,0-.24-.73.48.48,0,0,0-.28-.06Z" style="fill:#fff"></path><path d="M317.76,218.53a.43.43,0,0,0-.27.49s.06.06.09,0,.06-.1.11-.14a.32.32,0,0,1,.14-.08c.11,0,.19,0,.23-.14S318,218.43,317.76,218.53Z" style="fill:#fff;opacity:0.5"></path><path d="M318,218.61a.09.09,0,0,1-.06.1.08.08,0,0,1-.1-.06.08.08,0,0,1,.06-.1A.08.08,0,0,1,318,218.61Z" style="fill:#fff;opacity:0.6000000000000001"></path><path d="M298.12,225.14a.54.54,0,0,1,.1.66.56.56,0,0,1-.6.32.55.55,0,1,0,.5-1Z" style="fill:#fff;opacity:0.6000000000000001"></path><path d="M297.85,225.12a.51.51,0,0,1,.25,0,.52.52,0,0,1,.23.7.52.52,0,0,1-.44.28.57.57,0,0,1-.25-.06.55.55,0,0,1-.26-.3.53.53,0,0,1,0-.39.54.54,0,0,1,.44-.28m0,0a.55.55,0,0,0-.47.31.54.54,0,0,0,.24.73.46.46,0,0,0,.28.06.53.53,0,0,0,.46-.3.55.55,0,0,0-.24-.74.66.66,0,0,0-.27-.06Z" style="fill:#fff"></path><path d="M297.72,225.25a.43.43,0,0,0-.26.49s.06.06.09,0,.06-.1.1-.14l.14-.09c.12,0,.19,0,.23-.14S297.94,225.15,297.72,225.25Z" style="fill:#fff;opacity:0.5"></path><path d="M298,225.32a.08.08,0,0,1-.06.1.07.07,0,0,1-.1-.06.09.09,0,0,1,.06-.1A.08.08,0,0,1,298,225.32Z" style="fill:#fff;opacity:0.6000000000000001"></path><path d="M285.36,225.84a.55.55,0,0,1,.11.66.61.61,0,0,1-.6.32.55.55,0,0,0,.73-.25A.54.54,0,0,0,285.36,225.84Z" style="fill:#fff;opacity:0.6000000000000001"></path><path d="M285.09,225.81a.58.58,0,0,1,.26.06.51.51,0,0,1,.22.69.52.52,0,0,1-.43.28.58.58,0,0,1-.26-.06.53.53,0,0,1-.26-.29.52.52,0,0,1,.47-.68m0,0a.55.55,0,1,0,.05,1.09.51.51,0,0,0,.46-.3.54.54,0,0,0-.24-.73.45.45,0,0,0-.27-.06Z" style="fill:#fff"></path><path d="M285,225.94a.42.42,0,0,0-.27.49s.06.06.09,0,.06-.1.11-.14a.35.35,0,0,1,.13-.08c.12,0,.19,0,.23-.14S285.18,225.84,285,225.94Z" style="fill:#fff;opacity:0.5"></path><path d="M285.21,226a.08.08,0,0,1-.06.1.09.09,0,0,1-.1-.06.08.08,0,0,1,.06-.1A.07.07,0,0,1,285.21,226Z" style="fill:#fff;opacity:0.6000000000000001"></path><path d="M304,246.12a.55.55,0,0,1,.1.66.6.6,0,0,1-.6.32.56.56,0,0,0,.74-.25A.54.54,0,0,0,304,246.12Z" style="fill:#fff;opacity:0.6000000000000001"></path><path d="M303.74,246.09a.57.57,0,0,1,.25.06.51.51,0,0,1,.23.69.54.54,0,0,1-.44.28.51.51,0,0,1-.25-.06.47.47,0,0,1-.26-.29.56.56,0,0,1,0-.4.52.52,0,0,1,.44-.28m0,0a.51.51,0,0,0-.46.3.55.55,0,0,0,.24.74.57.57,0,0,0,.74-.25.54.54,0,0,0-.24-.73.46.46,0,0,0-.28-.06Z" style="fill:#fff"></path><path d="M303.61,246.22a.43.43,0,0,0-.27.49s.06.06.09,0,.06-.1.11-.14a.39.39,0,0,1,.14-.08c.11,0,.19,0,.23-.14S303.83,246.12,303.61,246.22Z" style="fill:#fff;opacity:0.5"></path><path d="M303.86,246.3a.09.09,0,0,1-.06.1.08.08,0,0,1-.1-.06.08.08,0,0,1,.06-.1A.07.07,0,0,1,303.86,246.3Z" style="fill:#fff;opacity:0.6000000000000001"></path></g><g id="freepik--hand--inject-109"><path d="M447.13,318.07a25.14,25.14,0,0,0-3.46-1.48c-12.65-4.8-25.57-9.93-30.71-12.81-11.42-6.37-18.51-9-28.48-21.12S372.36,268,369,264c-2.38-2.89-2.62-4.5-13.17-4.69s-24.36.84-27.86,1.22a46,46,0,0,0-13.71,3c-6.69,2.5-10.38,3.75-13.38,5.42s-4.08,7.27-5.25,10.7-1.48,6.3,1,7.07,7.27.55,11.42-4.89l3.7-1.05s-7.87,6.06-9.08,8.53-1.66,7.32,0,9.88,4.24,6.41,4.24,6.41a7.92,7.92,0,0,0,1.67,8.06c3.45,3.58,5.66,5.63,5.66,5.63a20.55,20.55,0,0,0-4.58,4c-2,2.42.26,5.91,5.56,5.94,4.18,0,10.81-3.5,15.81-4.67s12.25-3.73,15.91-2.48c1.17.41,3.56,2.19,5.75,3.53a55,55,0,0,1,6.7,4.22c5,4,7.82,8.43,16.47,10.25s13.55.39,20.08,3.84c4.46,2.35,45.63,32.12,48.23,34a55.91,55.91,0,0,0,5.74,3.8c13.55,7,23.87-1.51,23.1-19.09S460.66,325.11,447.13,318.07ZM313.9,299.81l-.54-1,5.36-4.94s4.8-.44,8.74-.38a16.84,16.84,0,0,0-7.06,2.44C318.33,297.28,313.9,299.81,313.9,299.81Zm10.23,13.12a27.21,27.21,0,0,0-5.46,3.06l-.71-3.18a45.16,45.16,0,0,1,5.17-2.56c.95-.18,9.71-1,13-1.59A62.64,62.64,0,0,0,324.13,312.93Z" style="fill:#ffa8a7"></path><path d="M396,344c3.3,1.75,26.75,18.53,39.74,27.88l-1.2-1c-4.15-3.45-8.14-7.07-12.13-10.69-3.22-2.93-6.43-5.85-9.52-8.91a107.8,107.8,0,0,0-9.43-8.84,14.23,14.23,0,0,0-4.84-2.68,13.82,13.82,0,0,0-4.49-.3c-4.09.28-8.25,1.34-12.3,1.58C387.09,341.52,391.06,341.37,396,344Z" style="fill:#f28f8f"></path><path d="M472.67,358.25c-2.41-15.58-11.49-32.32-25.54-40.18,14,7.9,23,24.65,25.36,40.21,1,7.8.69,17.19-5.51,22.85-5.34,4.76-13.39,3-18.85-.64-14.5-10.22-28.74-20.82-43.31-30.95-4.54-3-8.84-6.83-14.34-7.87a76,76,0,0,0-8.17-.94c-10.13-.85-14.23-3.2-21.44-10.11-3.05-2.81-6.89-4.45-10.27-6.79a21.39,21.39,0,0,0-3.62-2.11c-5.47-1.16-11,1.47-16.24,2.52-4,1-7.7,2.79-11.65,3.92a10.26,10.26,0,0,1-7.65-.19,3.36,3.36,0,0,1-2-2.77c0-1.27,1.13-2.17,2-3s2.22-2.34,3.27-3.17c-1.66-1.72-4.39-4.18-5.95-5.89a8.57,8.57,0,0,1-1.84-7.09,5.88,5.88,0,0,1,.28-.84L303.07,299a10.78,10.78,0,0,1,.54-10.4,75.83,75.83,0,0,1,9.34-8.75c.31-.24-.89.42-1.28.53L308,281.47a.34.34,0,0,0-.2.13c-2.39,3.21-6.34,5.78-10.46,4.93a2.35,2.35,0,0,1-2.06-1.63c-.45-2,.38-4,1-5.95.92-2.8,1.61-6.29,3.49-8.58a6.53,6.53,0,0,1,2.44-1.75c2.81-1.38,5.78-2.42,8.72-3.53a64,64,0,0,1,12-3.69c6.2-.93,12.52-1.26,18.79-1.61,4.19-.2,8.39-.33,12.58-.31a45.77,45.77,0,0,1,9.36.71,7.65,7.65,0,0,1,4.93,3.44c1.26,1.51,4.73,5.74,6,7.28,4.78,5.65,11.2,14,16.54,19a58.84,58.84,0,0,0,10.14,7.48c7.32,4.11,14.63,8.31,22.48,11.37,5.65,2.34,11.81,4.75,17.58,6.93a57.84,57.84,0,0,1,5.83,2.37,54.68,54.68,0,0,0-5.82-2.39c-5.72-2.2-11.92-4.64-17.56-7-7.82-3.09-15.12-7.31-22.42-11.45a58,58,0,0,1-10.07-7.49,89.74,89.74,0,0,1-8.44-9.31l-12-14.59-2-2.44a11.94,11.94,0,0,0-2.17-2.33c-1.78-1.26-4-1.52-6.08-1.75a161.38,161.38,0,0,0-18.92,0c-6.3.33-12.61.63-18.86,1.54a64.54,64.54,0,0,0-12.08,3.68c-3.45,1.31-7,2.43-10.21,4.3-2.26,1.59-3.13,4.45-3.95,6.89l-.92,3c-.63,2-1.52,4.12-1,6.33a3,3,0,0,0,2.56,2.1c4.36.93,8.56-1.7,11.11-5.06l1.82-.51a49.92,49.92,0,0,0-7.11,6.52c-1.61,2.11-1.87,5-1.76,7.54a8.27,8.27,0,0,0,1.14,3.79l3.95,6a8.27,8.27,0,0,0-.18,4.29c.64,2.93,2.88,4.9,4.84,6.89l2.56,2.56a22.78,22.78,0,0,0-2.82,2.27c-1,1-2.25,2.12-2.23,3.71a4.25,4.25,0,0,0,2.51,3.57c4,2,8.38.32,12.23-1.08A113.44,113.44,0,0,1,338.86,323c2.55-.54,5.35-1.22,7.88-.54a20,20,0,0,1,3.44,2c2.23,1.55,4.73,2.78,7,4.24,4.57,3,7.95,7.61,13,9.9,6.29,3,13.47,2.45,20.13,3.64,5.42,1,9.67,4.8,14.16,7.73,13.45,9.35,26.76,18.91,40.05,28.48C463.55,393,475.91,378.68,472.67,358.25Z" style="fill:#f28f8f"></path><path d="M342.31,272.63c-4.73-.25-9.43-.63-14.17-.8a11.72,11.72,0,0,0-4.82.61,28.14,28.14,0,0,0-6.48,3.92,42.33,42.33,0,0,1-9.77,3c-3.2.44-6.43-1.32-6.18-1a4.24,4.24,0,0,1,1,5,7.69,7.69,0,0,1-3.19,3.73c2.6.06,6.19-1,9.38-5.21l3.7-1.05s7.47-5.82,11.84-7.5a10.94,10.94,0,0,1,4.5-.51c4.72.18,9.46.38,14.19.33a23.37,23.37,0,0,0,4.73-.4A28.62,28.62,0,0,1,342.31,272.63ZM313.36,298.8l5.36-4.94c3-.26,5.93-.4,8.74-.38,4-.86,12.23-2.65,14.59-5.18a32,32,0,0,1-13.14,3c-5-.08-8.48-1-10.81.62a47,47,0,0,0-6.76,6.69c-1.51,2.25-4,3.61-4.42,7,.87-2.13,7-5.78,7-5.78Zm10.9,9.72a39.75,39.75,0,0,0-7,3.09c-1.62.94-.34,2.81-2.29,3.76s-6.06-1.37-6.06-1.37h0c3.25,3.35,5.32,5.28,5.32,5.28l4.42-3.29a6,6,0,0,0-.71-3.18,45.16,45.16,0,0,1,5.17-2.56c.95-.18,9.71-1,13-1.59,2.32-.37,6.72-3,7.44-6.31-3.77,3.49-4.19,4.44-8.29,5.09S325.71,308.19,324.26,308.52Z" style="fill:#f28f8f"></path><path d="M322.26,276.86c.06-.07,0-.3-.1-.22a8.11,8.11,0,0,0-2.65,4.39,14.55,14.55,0,0,0,.12,6.23s0,0,0,0a18.33,18.33,0,0,1,.31-5.86A10.23,10.23,0,0,1,322.26,276.86Zm0,2.3c-.31.56-.57,1.15-.88,1.71-.14.26-.29.53-.45.78a4.83,4.83,0,0,0-.39.87c0,.06,0,.25.11.16a3.1,3.1,0,0,0,.59-.71c.16-.27.32-.54.46-.82a11.6,11.6,0,0,0,.8-1.76C322.54,279.27,322.36,279,322.26,279.16Zm-3.29-.55a2.75,2.75,0,0,0-.81,2,9.24,9.24,0,0,0-.06,1.39,14.39,14.39,0,0,0,.16,1.61c0,.1.1.06.1,0,0-.85.09-1.7.15-2.55a3.39,3.39,0,0,1,.67-2.07C319.28,278.81,319.13,278.48,319,278.61Z" style="fill:#f28f8f"></path><path d="M321,301.62a6.7,6.7,0,0,1-.14-1.67c0-.1-.17-.27-.21-.11a3.84,3.84,0,0,0,0,1.72,3.71,3.71,0,0,0,.82,1.73c.1.12.13-.1.1-.17A8,8,0,0,1,321,301.62Zm4,0c0-.23-.09-.46-.14-.69a10,10,0,0,0-.45-1.41c0-.07-.09-.16-.17-.13s-.08.14-.06.21c.14.43.24.87.34,1.31.05.23.09.46.13.69a2.76,2.76,0,0,0,.18.74c0,.1.18.13.21,0A1.65,1.65,0,0,0,324.94,301.63Zm-2-.18c-.11-.59-.24-1.18-.39-1.76a8.11,8.11,0,0,0-.5-1.63c-.07-.14-.32-.22-.3,0a15.12,15.12,0,0,0,.43,1.7c.14.58.25,1.18.35,1.77.2,1.18.24,2.4.48,3.57,0,.1.16.18.18,0a6.72,6.72,0,0,0,0-1.9C323.13,302.65,323.06,302.05,323,301.45Z" style="fill:#f28f8f"></path><path d="M326.91,317.91a5.39,5.39,0,0,0-1-2.59c-.15-.17-.24.05-.2.18.12.42.32.81.42,1.23s.18.82.26,1.24a13.53,13.53,0,0,0,.72,2.95c0,.11.19.12.2,0a5.45,5.45,0,0,0-.14-1.45C327.12,318.94,327,318.42,326.91,317.91Zm-1.59,1.23-.29-.39a3.06,3.06,0,0,1-.42-.8c0-.05-.06-.1-.12-.08s-.06.1-.05.15a3.16,3.16,0,0,0,.42,1,1.94,1.94,0,0,0,.74.71c.08.05.07-.13,0-.17S325.42,319.27,325.32,319.14Zm3.19-1.43a10.64,10.64,0,0,0-.46-1.65c0-.1-.14-.22-.26-.2s-.13.16-.1.26a12.12,12.12,0,0,1,.33,1.59c0,.26.07.52.1.78a3.11,3.11,0,0,0,.08.44,1.26,1.26,0,0,0,.13.43c0,.06.16.14.23.06s.08-.25.09-.39a2.16,2.16,0,0,0,0-.44C328.61,318.29,328.57,318,328.51,317.71Z" style="fill:#f28f8f"></path><path d="M323.08,263a12.59,12.59,0,0,0-1.24,7.56c0,.08.12.13.12,0a24.31,24.31,0,0,1,1.47-7.29C323.5,263.08,323.21,262.74,323.08,263Zm-2.34,2.22a3.74,3.74,0,0,0-.4,1.18,3.21,3.21,0,0,0-.09,1.27c0,.08.14.19.18.07a3.83,3.83,0,0,0,.07-.58c0-.2.06-.4.1-.6s.09-.38.14-.56.15-.38.21-.57a.21.21,0,0,0-.06-.21S320.78,265.14,320.74,265.21Zm3.86.4a.13.13,0,0,0-.2.11,4.86,4.86,0,0,1-.29,1.36c0,.1-.07.21-.11.31s-.1.21-.13.32a1.53,1.53,0,0,1-.13.32l-.17.34c0,.07,0,.3.14.22a1.86,1.86,0,0,0,.23-.26l.24-.32a2.72,2.72,0,0,0,.31-.67,4.7,4.7,0,0,0,.26-1.44A.29.29,0,0,0,324.6,265.61Z" style="fill:#f28f8f"></path><path d="M370.78,280.92c-1-1.5-2.17-2.89-3.27-4.32a11.29,11.29,0,0,0-3.6-3.28,8.49,8.49,0,0,0-3.46-.89,15.88,15.88,0,0,0-4.16.53.66.66,0,0,0-.47.25,5.73,5.73,0,0,0,1.31.16l2.05.08a8.34,8.34,0,0,1,4.29,1.1,20.71,20.71,0,0,1,3.17,3.11c1.25,1.27,2.46,2.6,3.78,3.79C370.81,281.8,371,281.22,370.78,280.92Zm-9.7,6a5.75,5.75,0,0,0-2.16-1,12.2,12.2,0,0,0-5,.11c-.26,0-.6.23-.48.47,2.23.43,4.76.33,6.74,1.57a10.85,10.85,0,0,0,2,1.39c.67.24.35-.64.23-.89a4.22,4.22,0,0,0-.82-1.19C361.41,287.18,361.25,287,361.08,286.9Zm-3.18,16.56a5.37,5.37,0,0,0-5.44-.46c-.16.06-.35.24-.22.36a.22.22,0,0,0,.12.05c1.47.28,3.15.23,4.52.87.37.17.71.38,1.06.56s.52.19.67,0C359,304.38,358.54,303.88,357.9,303.46Z" style="fill:#f28f8f"></path><g id="freepik--Nail--inject-109"><path d="M296.14,278.16a5,5,0,0,1,2.38,4.93A8.46,8.46,0,0,1,297,286.8c-1.2,2-4.06,1.66-3-2.77A17.88,17.88,0,0,1,296.14,278.16Z" style="fill:#3B82F6"></path><path d="M298.56,282.41a4.85,4.85,0,0,0-2.42-4.25c-.17.29-.33.58-.47.85A7.06,7.06,0,0,0,298.56,282.41Z" style="fill:#fff;opacity:0.2"></path></g><g id="freepik--nail--inject-109"><path d="M313.3,320a5.57,5.57,0,0,0,.22,4.43c-.84,1-3.21,2.53-4.76,2.47s-1.62-2.23.41-4.16A11.73,11.73,0,0,1,313.3,320Z" style="fill:#3B82F6"></path><path d="M313.3,320c-1.34.86-2.73,3.5.22,4.43A5.57,5.57,0,0,1,313.3,320Z" style="fill:#fff;opacity:0.2"></path></g></g></g></g><g id="freepik--hand-1--inject-109"><g id="freepik--hand--inject-109"><g id="freepik--Arm--inject-109"><path d="M218.61,250.07c-1.42-5.51-3.21-6.56-5.86-7.83C208.9,240.4,193,239.9,185.51,240c-2.73,0-13.82-.44-18.39,1.14-3.12,1.08-7.2,3.05-19.31,10.38-10.35,6.27-18,11.59-28.31,13.68L61.33,277a19.46,19.46,0,0,0-7.58,3c-12.37,7.88-21.79,28-21,44.9.64,14.69,10.87,27.29,21.09,23.84,0,0,60.41-22.81,69.43-25.85s12.51.88,20.3,1.08c11.1.28,25.29-5.22,32.22-7.41a50.24,50.24,0,0,1,13.75-2.14S219.63,254,218.61,250.07Z" style="fill:#b16668"></path><path d="M176.32,268.84c-4.41,2.9-8.82,6.73-10.91,11.7-.81,1.95-17.38,9.23-23.3,17.41,15.17,2.54,27.87-9.83,30.83-13.86,1.56-2.12,3.29-4.45,5.72-3.42a7.11,7.11,0,0,0-.2,6.46,9.78,9.78,0,0,0-3.32,15.63c-.27-.29-2.95,2.16-3.24,2.62-.93,1.47-1.28,3.38-2.21,4.91a21.07,21.07,0,0,1-7.8,7.49c-5,2.73-12.64,4.08-18,2.26a76,76,0,0,1-7.74-3.07c-8.17-3.64-9.19.51-19.47,5.76-3,1.54-7.13,3.88-12.93,7.25,0,0,16.62-6.15,19.51-7.12,9-3.05,12.51.88,20.3,1.08,11.1.28,25.29-5.22,32.22-7.41a50.24,50.24,0,0,1,13.75-2.14s20.63-40.84,26.65-56.52C201.69,258.67,188.42,260.89,176.32,268.84Z" style="fill:#9a4a4d"></path><path d="M180,256c-.33-.35-.65-.7-1-1.08a13.22,13.22,0,0,1-1.41-2.34,12.2,12.2,0,0,1-.85-2.49,8.29,8.29,0,0,1-.2-1.4c0-.21,0-.43,0-.64,0-.46-.14-.93-.13-1.38,0-.06-.06-.06-.08,0-.09.26-.26.46-.33.73a3.59,3.59,0,0,0-.12.73,10.56,10.56,0,0,0,0,1.49,11.87,11.87,0,0,0,.5,3.07,11.36,11.36,0,0,0,1.5,3,5.9,5.9,0,0,0,2.39,2.26c.49.18,1.08-.25.82-.78A4.88,4.88,0,0,0,180,256Zm8.58-11.26a14.68,14.68,0,0,0-1.32,1.41c-.38.5-.79,1-1.15,1.52a12.11,12.11,0,0,0-1.92,6.49,7.38,7.38,0,0,0,.71,3.68c.48.75,2.2.75,2-.42a19,19,0,0,1-.57-3.29,12.34,12.34,0,0,1,.46-3.3c.27-1,.67-2,1-3a9.63,9.63,0,0,1,.61-1.25c.24-.42.39-.87.64-1.28C189.19,245.08,188.83,244.46,188.57,244.74Z" style="fill:#9a4a4d"></path></g><g id="freepik--glass--inject-109"><path d="M212.48,324.11c-10.83-10.4-31.3-15.45-45.72-11.27-7.21,2.09-11.53,6.09-12.71,10.87l-.34,1.4c-1.19,4.78.78,10.34,6.21,15.54,10.83,10.4,31.3,15.44,45.72,11.26,7.2-2.08,11.52-6.08,12.7-10.84.14-.54.23-.9.36-1.44C219.87,334.86,217.9,329.31,212.48,324.11Z" style="fill:#3B82F6"></path><path d="M212.48,324.11c-10.83-10.4-31.3-15.45-45.72-11.27-7.21,2.09-11.53,6.09-12.71,10.87l-.34,1.4c-1.19,4.78.78,10.34,6.21,15.54,10.83,10.4,31.3,15.44,45.72,11.26,7.2-2.08,11.52-6.08,12.7-10.84.14-.54.23-.9.36-1.44C219.87,334.86,217.9,329.31,212.48,324.11Z" style="fill:#fff;opacity:0.30000000000000004"></path><ellipse cx="186.37" cy="331.67" rx="19.22" ry="33.3" transform="translate(-180.25 433.32) rotate(-76.16)" style="fill:#3B82F6"></ellipse><ellipse cx="186.37" cy="331.67" rx="19.22" ry="33.3" transform="translate(-180.25 433.32) rotate(-76.16)" style="fill:#fff;opacity:0.55"></ellipse><path d="M181.66,323.14c-6.1-.15-9,3.91-6.43,7.63,4,5.67,16,8.37,20.52,4Z" style="fill:#3B82F6;opacity:0.30000000000000004"></path><path d="M203.84,321c8.35,4.45,13.1,22.46-5.3,25.5-13.46,2.23-34.56-5.86-37.32-9.1,4.23,4.26,18.26,13.77,37.32,12.27C223.34,347.74,219.37,326.24,203.84,321Z" style="fill:#fff;opacity:0.30000000000000004"></path><path d="M258.46,153,232,146.48,205.58,140s-17.17,46.77-22.2,69.54a32.12,32.12,0,0,0,9.13,31.06,23.36,23.36,0,0,1,6.79,22.51L185.48,319a5,5,0,0,1-3.3,3.55,12,12,0,0,0-4.71,2.88l-.26.27c-1.55,1.79-1.25,4.32,1.16,6.63A16.81,16.81,0,0,0,193.14,336c3.2-.93,4.65-3,4.1-5.33-.05-.22-.12-.43-.19-.64a11.87,11.87,0,0,0-2.72-4.43,5.06,5.06,0,0,1-1.3-4.71L206.85,265a23.34,23.34,0,0,1,16.47-16.78,32.14,32.14,0,0,0,22.51-23.26C252,202.41,258.46,153,258.46,153Z" style="fill:#3B82F6"></path><path d="M258.46,153,232,146.48,205.58,140s-17.17,46.77-22.2,69.54a32.12,32.12,0,0,0,9.13,31.06,23.36,23.36,0,0,1,6.79,22.51L185.48,319a5,5,0,0,1-3.3,3.55,12,12,0,0,0-4.71,2.88l-.26.27c-1.55,1.79-1.25,4.32,1.16,6.63A16.81,16.81,0,0,0,193.14,336c3.2-.93,4.65-3,4.1-5.33-.05-.22-.12-.43-.19-.64a11.87,11.87,0,0,0-2.72-4.43,5.06,5.06,0,0,1-1.3-4.71L206.85,265a23.34,23.34,0,0,1,16.47-16.78,32.14,32.14,0,0,0,22.51-23.26C252,202.41,258.46,153,258.46,153Z" style="fill:#fff;opacity:0.5"></path><path d="M197.84,242.82c-5-4.32-10.37-7.51-13.83-15.7a32.25,32.25,0,0,0,8.5,13.47,23.36,23.36,0,0,1,6.79,22.51C202,252.08,202.93,247.19,197.84,242.82Z" style="fill:#3B82F6;opacity:0.2"></path><path d="M208,243.93c-15.94-3.93-25.78-19.79-21.95-35.37l0-.05c4.24-19.25,17.72-56.7,21-65.68l24.36,6,24.34,6c-1.27,9.48-6.72,48.91-11.9,67.92l0,.06C240.05,238.37,224,247.85,208,243.93Z" style="fill:#3B82F6"></path><path d="M208,243.93c-15.94-3.93-25.78-19.79-21.95-35.37l0-.05c4.24-19.25,17.72-56.7,21-65.68l24.36,6,24.34,6c-1.27,9.48-6.72,48.91-11.9,67.92l0,.06C240.05,238.37,224,247.85,208,243.93Z" style="fill:#fff;opacity:0.30000000000000004"></path><path d="M228.84,159.43c-6.66-1.64-12.53-4.65-16.51-8.48-3.64-3.5-5.21-7.19-4.42-10.4s3.9-5.76,8.74-7.16c5.31-1.54,11.9-1.48,18.56.16s12.53,4.65,16.51,8.48c3.64,3.49,5.21,7.19,4.42,10.4s-3.9,5.75-8.74,7.16C242.09,161.13,235.5,161.07,228.84,159.43Z" style="fill:#3B82F6"></path><path d="M228.84,159.43c-6.66-1.64-12.53-4.65-16.51-8.48-3.64-3.5-5.21-7.19-4.42-10.4s3.9-5.76,8.74-7.16c5.31-1.54,11.9-1.48,18.56.16s12.53,4.65,16.51,8.48c3.64,3.49,5.21,7.19,4.42,10.4s-3.9,5.75-8.74,7.16C242.09,161.13,235.5,161.07,228.84,159.43Z" style="fill:#fff;opacity:0.4"></path><path d="M241.35,162.66c-5.63,31.36-8,54.57-15.71,66.68C220.74,237,209,240.18,206,252.21S191.12,312.42,189.5,319c-1.3,5.27-.47,6.63,0,9.63s-3.63,5.67-9.19,3.09c1.42,1.78,7.84,4.19,11.67,3.11s4.2-4.34,1.89-7.65c-2-2.92-3.48-2.13-1.35-10.8s13.18-53.34,14.27-57.77c2.41-9.79,6.71-12,15.86-17.27,12.49-7.19,15.31-16.69,18.17-30.58s8.77-49.39,8.77-49.39Z" style="fill:#fff;opacity:0.30000000000000004"></path><path d="M186.77,208.73v.06c-3.68,15.08,5.88,30.4,21.32,34.16s31-5.43,34.65-20.51l0-.07c2.44-9.06,5-22.94,7.05-35.9,0-.12,0-.24.06-.37.44-3.52-2.19-7.17-7.92-10-10.5-5.19-27.53-5.75-38.62-1.35-.59.25-1.16.53-1.71.81-3.86,2-6.3,4.31-7.33,6.71a5,5,0,0,0-.25.64c0,.09-.06.18-.08.26C191,192.6,188.26,201.87,186.77,208.73Z" style="fill:#3B82F6"></path><path d="M186.77,208.73v.06c-3.68,15.08,5.88,30.4,21.32,34.16s31-5.43,34.65-20.51l0-.07c2.44-9.06,5-22.94,7.05-35.9,0-.12,0-.24.06-.37.44-3.52-2.19-7.17-7.92-10-10.5-5.19-27.53-5.75-38.62-1.35-.59.25-1.16.53-1.71.81-3.86,2-6.3,4.31-7.33,6.71a5,5,0,0,0-.25.64c0,.09-.06.18-.08.26C191,192.6,188.26,201.87,186.77,208.73Z" style="fill:#fff;opacity:0.85"></path><path d="M222.68,241.34l-3.81,2.2a29.49,29.49,0,0,1-8.28-.08c4.79-5.56,11.62-8.72,15-14.12,6.67-10.49,9.34-29.27,13.59-54.44.94.36,1.85.75,2.71,1.18a21.11,21.11,0,0,1,4.67,3.07c-1.89,11-4.24,24.28-5.75,31.61C238,224.66,235.17,234.15,222.68,241.34Z" style="fill:#fff;opacity:0.5"></path><path d="M194.28,182.25a.32.32,0,0,1,0-.09,2.77,2.77,0,0,1,.1-.26,8.73,8.73,0,0,1,1.67-2.58h0a.27.27,0,0,1,.08-.07,12.64,12.64,0,0,1,1.11-1.07c7.64-6.8,20.93-8.42,29.91-8.1,2.77.1,5.9-.16,7.3-1.64,1.19-1.26.36-2.7,1.46-3.56s2.44.33,3.08,1.25c.93,1.51,2.37,1.34,2.15-1.93-.1-1.44-1-4.7-.22-6.43a2,2,0,0,1,3.17-.83c6.62,4.91,8.63,29.74,3.7,33.32l-.07.05a18.28,18.28,0,0,1-6.25,4.19c-11.06,4.82-28.77,4.39-39.58-1C195.48,190.36,193,186.15,194.28,182.25Z" style="fill:#fafafa"></path><path d="M194.28,182.25a.32.32,0,0,1,0-.09,2.77,2.77,0,0,1,.1-.26,8.73,8.73,0,0,1,1.67-2.58h0a.27.27,0,0,1,.08-.07,12.64,12.64,0,0,1,1.11-1.07c7.64-6.8,20.93-8.42,29.91-8.1,2.77.1,5.9-.16,7.3-1.64,1.19-1.26.36-2.7,1.46-3.56s2.44.33,3.08,1.25c.93,1.51,2.37,1.34,2.15-1.93-.1-1.44-1-4.7-.22-6.43a2,2,0,0,1,3.17-.83c6.62,4.91,8.63,29.74,3.7,33.32l-.07.05a18.28,18.28,0,0,1-6.25,4.19c-11.06,4.82-28.77,4.39-39.58-1C195.48,190.36,193,186.15,194.28,182.25Z" style="fill:#fafafa"></path><path d="M241.35,162.66c-.08.43-.15.84-.23,1.26,0,.1,0,.2,0,.28.1,1.53-.16,2.37-.56,2.69-1.91,11-3.46,20.84-5,29.54a36.15,36.15,0,0,0,5.93-1.93,26.52,26.52,0,0,0,2.67-1.36C246,183,247.84,172,248.86,166a32.63,32.63,0,0,0-1.45-4.26Z" style="fill:#fff"></path><path d="M245.41,153.47a2.08,2.08,0,0,0,1.73-2.33,2.46,2.46,0,0,0-1.79-2.17,2.35,2.35,0,0,0-2.67,3.5A2.67,2.67,0,0,0,245.41,153.47Z" style="fill:#fff"></path><path d="M239.5,155.08a.94.94,0,0,0,.78-1.05,1.1,1.1,0,0,0-.81-1,1.06,1.06,0,0,0-1.2,1.58A1.2,1.2,0,0,0,239.5,155.08Z" style="fill:#fff"></path><path d="M253.37,140.3c-8.85-8.5-25.59-12.63-37.38-9.21s-14.18,13.09-5.32,21.58,25.6,12.63,37.39,9.22S262.23,148.81,253.37,140.3Zm-6,19.29c-5.31,1.54-11.9,1.48-18.56-.16s-12.52-4.65-16.51-8.48c-3.65-3.5-5.21-7.19-4.42-10.4s3.9-5.75,8.74-7.16c5.31-1.54,11.9-1.48,18.56.16s12.53,4.65,16.52,8.48c3.63,3.49,5.2,7.19,4.41,10.4S252.25,158.18,247.4,159.59Z" style="fill:#3B82F6"></path><path d="M253.37,140.3c-8.85-8.5-25.59-12.63-37.38-9.21s-14.18,13.09-5.32,21.58,25.6,12.63,37.39,9.22S262.23,148.81,253.37,140.3Zm-6,19.29c-5.31,1.54-11.9,1.48-18.56-.16s-12.52-4.65-16.51-8.48c-3.65-3.5-5.21-7.19-4.42-10.4s3.9-5.75,8.74-7.16c5.31-1.54,11.9-1.48,18.56.16s12.53,4.65,16.52,8.48c3.63,3.49,5.2,7.19,4.41,10.4S252.25,158.18,247.4,159.59Z" style="fill:#fff;opacity:0.7000000000000001"></path><g style="opacity:0.7000000000000001"><path d="M210.67,152.67c8.86,8.51,25.6,12.63,37.39,9.22,11.3-3.28,13.95-12.28,6.37-20.5,3.44,3.91,7.31,14.17-3.93,18.68-13.85,5.56-39-.13-44.93-15.62A16.76,16.76,0,0,0,210.67,152.67Z" style="fill:#fff"></path><path d="M254.12,141.05l.15.16Z" style="fill:#fff"></path></g><path d="M210.9,214.26a1.46,1.46,0,0,0-.27,1.78,1.59,1.59,0,0,0,1.62.86,1.48,1.48,0,0,1-1.35-2.64Z" style="fill:#fff;opacity:0.6000000000000001"></path><path d="M211.63,214.19a1.39,1.39,0,0,1,.58,2.62,1.49,1.49,0,0,1-.69.16,1.4,1.4,0,0,1-1.27-1.82,1.42,1.42,0,0,1,.69-.81,1.39,1.39,0,0,1,.69-.15m0-.1a1.5,1.5,0,0,0-.73.17,1.48,1.48,0,0,0,1.35,2.64,1.49,1.49,0,0,0,.65-2,1.53,1.53,0,0,0-1.27-.81Z" style="fill:#fff"></path><path d="M212,214.55a1.11,1.11,0,0,1,.72,1.3c0,.08-.15.17-.23.1s-.17-.27-.3-.39a1.1,1.1,0,0,0-.37-.23c-.31-.09-.51-.09-.62-.37S211.38,214.27,212,214.55Z" style="fill:#fff;opacity:0.5"></path><path d="M211.3,214.74a.22.22,0,0,0,.17.27.22.22,0,0,0,.27-.16.23.23,0,0,0-.17-.27A.22.22,0,0,0,211.3,214.74Z" style="fill:#fff;opacity:0.6000000000000001"></path><path d="M242.73,197.11a2.12,2.12,0,0,0-.38,2.54,2.24,2.24,0,0,0,2.3,1.21,2.11,2.11,0,0,1-1.92-3.75Z" style="fill:#fff;opacity:0.6000000000000001"></path><path d="M243.77,197a2,2,0,0,1,1.68,1.07,2,2,0,0,1,.12,1.5,2,2,0,0,1-1.95,1.37,2,2,0,0,1-1.68-1.07,1.94,1.94,0,0,1-.12-1.51,1.94,1.94,0,0,1,2-1.36m0-.14a2.16,2.16,0,0,0-1,.23,2.11,2.11,0,0,0,.88,4,2,2,0,0,0,1-.23,2.11,2.11,0,0,0-.88-4Z" style="fill:#fff"></path><path d="M244.25,197.52a1.61,1.61,0,0,1,1,1.86c0,.11-.22.24-.33.13s-.24-.38-.42-.54a1.51,1.51,0,0,0-.54-.33c-.44-.12-.72-.14-.88-.53S243.41,197.13,244.25,197.52Z" style="fill:#fff;opacity:0.5"></path><path d="M243.3,197.81a.32.32,0,0,0,.62.14.31.31,0,0,0-.24-.38A.32.32,0,0,0,243.3,197.81Z" style="fill:#fff;opacity:0.6000000000000001"></path><path d="M228,202.72a1.6,1.6,0,0,0-.21,1.93,1.7,1.7,0,0,0,1.79.84,1.59,1.59,0,1,1-1.58-2.77Z" style="fill:#fff;opacity:0.6000000000000001"></path><path d="M228.79,202.61a1.5,1.5,0,0,1,0,3,1.52,1.52,0,0,1-1.31-.75,1.49,1.49,0,0,1,.56-2,1.54,1.54,0,0,1,.73-.2m0-.1a1.55,1.55,0,0,0-.78.21,1.6,1.6,0,0,0-.6,2.18,1.62,1.62,0,0,0,1.4.8,1.6,1.6,0,0,0,0-3.19Z" style="fill:#fff"></path><path d="M229.17,203a1.21,1.21,0,0,1,.84,1.37c0,.08-.16.19-.25.11s-.19-.28-.33-.4a1.32,1.32,0,0,0-.42-.23c-.34-.08-.55-.07-.68-.37S228.52,202.71,229.17,203Z" style="fill:#fff;opacity:0.5"></path><path d="M228.46,203.23a.25.25,0,0,0,.19.28.25.25,0,0,0,.29-.19.26.26,0,0,0-.2-.29A.25.25,0,0,0,228.46,203.23Z" style="fill:#fff;opacity:0.6000000000000001"></path><path d="M218.25,202a.91.91,0,0,0-.17,1.1,1,1,0,0,0,1,.53.91.91,0,1,1-.83-1.63Z" style="fill:#fff;opacity:0.6000000000000001"></path><path d="M218.7,202a.85.85,0,0,1,.35,1.62,1,1,0,0,1-.42.09.85.85,0,0,1-.73-.47.86.86,0,0,1,.37-1.15.9.9,0,0,1,.43-.09m0-.06a.9.9,0,0,0-.45.1.91.91,0,0,0-.4,1.23,1,1,0,0,0,.78.5,1,1,0,0,0,.45-.1.92.92,0,0,0-.38-1.73Z" style="fill:#fff"></path><path d="M218.91,202.19a.7.7,0,0,1,.44.8s-.09.11-.14.06-.11-.16-.18-.24a.72.72,0,0,0-.24-.14c-.19,0-.31-.06-.38-.23S218.54,202,218.91,202.19Z" style="fill:#fff;opacity:0.5"></path><path d="M218.49,202.31a.15.15,0,0,0,.11.17.14.14,0,0,0,.16-.11.13.13,0,0,0-.1-.16A.15.15,0,0,0,218.49,202.31Z" style="fill:#fff;opacity:0.6000000000000001"></path><path d="M225.65,214.55a1.07,1.07,0,0,0-.19,1.29,1.11,1.11,0,0,0,1.16.61,1.05,1.05,0,0,1-1.43-.46A1.07,1.07,0,0,1,225.65,214.55Z" style="fill:#fff;opacity:0.6000000000000001"></path><path d="M226.18,214.5a1,1,0,0,1,.85.55,1,1,0,0,1,.06.76,1,1,0,0,1-.5.58.93.93,0,0,1-.49.11,1,1,0,0,1-.85-.54,1,1,0,0,1,.43-1.35,1.1,1.1,0,0,1,.5-.11m0-.06a1.1,1.1,0,0,0-.53.11,1.07,1.07,0,0,0-.46,1.44,1,1,0,0,0,.91.58,1,1,0,0,0,.52-.12,1.06,1.06,0,0,0-.44-2Z" style="fill:#fff"></path><path d="M226.42,214.76a.81.81,0,0,1,.52.94c0,.06-.11.13-.16.07s-.13-.19-.22-.28a.74.74,0,0,0-.27-.16c-.22-.07-.36-.07-.45-.27S226,214.56,226.42,214.76Z" style="fill:#fff;opacity:0.5"></path><path d="M225.94,214.9a.16.16,0,0,0,.12.2.18.18,0,0,0,.2-.12.17.17,0,0,0-.13-.2A.17.17,0,0,0,225.94,214.9Z" style="fill:#fff;opacity:0.6000000000000001"></path><path d="M195.93,202.42a1.07,1.07,0,0,0-.2,1.29,1.14,1.14,0,0,0,1.17.61,1.07,1.07,0,1,1-1-1.9Z" style="fill:#fff;opacity:0.6000000000000001"></path><path d="M196.45,202.37a1,1,0,0,1,.85.55,1,1,0,0,1,.06.76,1,1,0,0,1-1,.69,1,1,0,0,1-.85-.54,1,1,0,0,1,.44-1.35,1,1,0,0,1,.49-.11m0-.07a1.1,1.1,0,0,0-.52.12,1.07,1.07,0,0,0-.47,1.44,1.09,1.09,0,0,0,.91.58,1,1,0,0,0,.53-.12,1.07,1.07,0,0,0-.45-2Z" style="fill:#fff"></path><path d="M196.7,202.63a.82.82,0,0,1,.52.94c0,.06-.12.12-.17.07a2.92,2.92,0,0,0-.21-.28.78.78,0,0,0-.28-.16c-.22-.07-.36-.07-.44-.28S196.27,202.43,196.7,202.63Z" style="fill:#fff;opacity:0.5"></path><path d="M196.22,202.77a.16.16,0,0,0,.12.2.17.17,0,0,0,.19-.12.16.16,0,0,0-.12-.2A.16.16,0,0,0,196.22,202.77Z" style="fill:#fff;opacity:0.6000000000000001"></path><path d="M220.72,221.08a.78.78,0,0,0-.11.95.85.85,0,0,0,.88.41.8.8,0,0,1-1.07-.29A.79.79,0,0,1,220.72,221.08Z" style="fill:#fff;opacity:0.6000000000000001"></path><path d="M221.1,221a.74.74,0,0,1,.37,1.38.77.77,0,0,1-.36.09.73.73,0,0,1-.64-.37.69.69,0,0,1-.07-.56.74.74,0,0,1,.7-.54m0-.05a.76.76,0,0,0-.38.11.79.79,0,0,0-.3,1.07.8.8,0,0,0,.69.39.75.75,0,0,0,.38-.1.79.79,0,0,0,.3-1.07.8.8,0,0,0-.69-.4Z" style="fill:#fff"></path><path d="M221.29,221.2a.6.6,0,0,1,.41.68s-.08.09-.12.05a1.54,1.54,0,0,0-.17-.19.51.51,0,0,0-.2-.12c-.17,0-.27,0-.34-.18S221,221.07,221.29,221.2Z" style="fill:#fff;opacity:0.5"></path><path d="M220.94,221.33a.11.11,0,0,0,.09.13.11.11,0,0,0,.14-.09.12.12,0,1,0-.23,0Z" style="fill:#fff;opacity:0.6000000000000001"></path><path d="M212.37,208.37a.9.9,0,0,0-.16,1.09,1,1,0,0,0,1,.52.9.9,0,0,1-.82-1.61Z" style="fill:#fff;opacity:0.6000000000000001"></path><path d="M212.81,208.33a.86.86,0,0,1,.72.46.85.85,0,0,1-.37,1.14,1,1,0,0,1-.41.09.84.84,0,0,1-.77-1.1.82.82,0,0,1,.42-.49.86.86,0,0,1,.41-.1m0-.05a.89.89,0,0,0-.45.09.91.91,0,0,0,.38,1.71,1,1,0,0,0,.44-.1.9.9,0,0,0,.39-1.21.89.89,0,0,0-.76-.49Z" style="fill:#fff"></path><path d="M213,208.55a.68.68,0,0,1,.44.79s-.1.11-.14.06-.1-.16-.18-.23a.62.62,0,0,0-.23-.14c-.19-.06-.31-.06-.38-.23S212.66,208.38,213,208.55Z" style="fill:#fff;opacity:0.5"></path><path d="M212.61,208.67a.14.14,0,0,0,.11.16.13.13,0,0,0,.16-.1.13.13,0,0,0-.1-.16A.14.14,0,0,0,212.61,208.67Z" style="fill:#fff;opacity:0.6000000000000001"></path><path d="M239.22,212a1.82,1.82,0,0,0-.33,2.2,1.94,1.94,0,0,0,2,1.05,1.82,1.82,0,0,1-1.66-3.25Z" style="fill:#fff;opacity:0.6000000000000001"></path><path d="M240.12,212a1.7,1.7,0,0,1,.71,3.22,1.65,1.65,0,0,1-.84.19,1.7,1.7,0,0,1-1.46-.93,1.68,1.68,0,0,1-.1-1.3,1.7,1.7,0,0,1,.84-1,1.81,1.81,0,0,1,.85-.18m0-.12a1.82,1.82,0,1,0,1.56,1,1.85,1.85,0,0,0-1.56-1Z" style="fill:#fff"></path><path d="M240.54,212.39a1.39,1.39,0,0,1,.89,1.61c0,.09-.2.2-.29.11s-.21-.33-.36-.47a1.42,1.42,0,0,0-.47-.29c-.38-.11-.62-.12-.76-.46S239.81,212.05,240.54,212.39Z" style="fill:#fff;opacity:0.5"></path><path d="M239.71,212.63a.28.28,0,0,0,.21.33.27.27,0,0,0,.33-.2.29.29,0,0,0-.2-.34A.29.29,0,0,0,239.71,212.63Z" style="fill:#fff;opacity:0.6000000000000001"></path><path d="M206.61,200.48a1.5,1.5,0,0,0,.43,1.79,1.62,1.62,0,0,0,1.85.18,1.51,1.51,0,0,1-2.28-2Z" style="fill:#fff;opacity:0.6000000000000001"></path><path d="M207.81,200.05a1.46,1.46,0,0,1,.86.35,1.36,1.36,0,0,1,.48,1,1.4,1.4,0,0,1-1.46,1.51,1.36,1.36,0,0,1-.86-.34,1.41,1.41,0,0,1-.15-2,1.45,1.45,0,0,1,1.13-.49m0-.09a1.51,1.51,0,0,0-1.05,2.64,1.46,1.46,0,0,0,.93.37,1.5,1.5,0,0,0,1.2-.52,1.52,1.52,0,0,0-.16-2.13,1.48,1.48,0,0,0-.92-.36Z" style="fill:#fff"></path><path d="M207.72,200.34a1.15,1.15,0,0,1,1.19,1c0,.08-.09.22-.19.17s-.26-.19-.42-.25a1.41,1.41,0,0,0-.45-.07c-.32,0-.51.11-.72-.11S207.06,200.31,207.72,200.34Z" style="fill:#fff;opacity:0.5"></path><path d="M207.17,200.79a.24.24,0,0,0,.26.19.23.23,0,0,0,.19-.27.23.23,0,0,0-.45.08Z" style="fill:#fff;opacity:0.6000000000000001"></path><path d="M199.9,209.74a1.92,1.92,0,0,0,.54,2.26,2.05,2.05,0,0,0,2.35.22,1.9,1.9,0,0,1-2.89-2.48Z" style="fill:#fff;opacity:0.6000000000000001"></path><path d="M201.42,209.2a1.83,1.83,0,0,1,1.09.43,1.78,1.78,0,0,1,.18,2.51,1.75,1.75,0,0,1-1.42.62,1.72,1.72,0,0,1-1.09-.43,1.78,1.78,0,0,1,1.24-3.13m0-.12a1.9,1.9,0,0,0-1.32,3.34,1.82,1.82,0,0,0,1.17.46,1.88,1.88,0,0,0,1.52-.66,1.91,1.91,0,0,0-.2-2.68,1.93,1.93,0,0,0-1.17-.46Z" style="fill:#fff"></path><path d="M201.31,209.57a1.45,1.45,0,0,1,1.5,1.2c0,.11-.11.28-.24.22s-.33-.23-.53-.31a1.37,1.37,0,0,0-.56-.09c-.41,0-.65.13-.92-.15S200.48,209.52,201.31,209.57Z" style="fill:#fff;opacity:0.5"></path><path d="M200.62,210.13a.28.28,0,0,0,.56-.09.28.28,0,1,0-.56.09Z" style="fill:#fff;opacity:0.6000000000000001"></path><path d="M199.89,218.84a.54.54,0,0,0-.1.66.59.59,0,0,0,.6.32.55.55,0,0,1-.5-1Z" style="fill:#fff;opacity:0.6000000000000001"></path><path d="M200.16,218.81a.52.52,0,0,1,.43.28.51.51,0,0,1,0,.4.59.59,0,0,1-.26.3.45.45,0,0,1-.25.05.5.5,0,0,1-.44-.28.51.51,0,0,1,.22-.69.58.58,0,0,1,.26-.06m0,0a.43.43,0,0,0-.27.06.55.55,0,0,0,.23,1,.66.66,0,0,0,.27-.06.55.55,0,0,0-.23-1Z" style="fill:#fff"></path><path d="M200.28,219a.41.41,0,0,1,.27.48s-.06.06-.09,0-.06-.09-.11-.14a.32.32,0,0,0-.14-.08c-.11,0-.18,0-.22-.14S200.06,218.84,200.28,219Z" style="fill:#fff;opacity:0.5"></path><path d="M200,219a.07.07,0,0,0,.06.1.09.09,0,0,0,.1-.06.08.08,0,0,0-.07-.1A.07.07,0,0,0,200,219Z" style="fill:#fff;opacity:0.6000000000000001"></path><path d="M237,204.56a.55.55,0,0,0-.1.67.58.58,0,0,0,.6.31.55.55,0,0,1-.5-1Z" style="fill:#fff;opacity:0.6000000000000001"></path><path d="M237.29,204.54a.52.52,0,0,1,.44.28.53.53,0,0,1,0,.39.48.48,0,0,1-.26.3.51.51,0,0,1-.25.06.54.54,0,0,1-.44-.28.52.52,0,0,1,.22-.7.47.47,0,0,1,.26-.05m0,0a.66.66,0,0,0-.27.06.55.55,0,0,0-.24.74.54.54,0,0,0,.47.3.53.53,0,0,0,.27-.06.55.55,0,0,0,.24-.74.58.58,0,0,0-.47-.3Z" style="fill:#fff"></path><path d="M237.42,204.67a.42.42,0,0,1,.26.49s-.05.06-.08,0-.07-.1-.11-.14a.37.37,0,0,0-.14-.09c-.12,0-.19,0-.23-.14S237.2,204.57,237.42,204.67Z" style="fill:#fff;opacity:0.5"></path><path d="M237.17,204.74a.08.08,0,0,0,.06.1.08.08,0,0,0,.1-.06.09.09,0,0,0-.06-.1A.08.08,0,0,0,237.17,204.74Z" style="fill:#fff;opacity:0.6000000000000001"></path><path d="M190.58,206.43a.55.55,0,0,0-.1.67.58.58,0,0,0,.6.31.55.55,0,1,1-.5-1Z" style="fill:#fff;opacity:0.6000000000000001"></path><path d="M190.85,206.41a.51.51,0,0,1,.47.67.48.48,0,0,1-.26.3.5.5,0,0,1-.69-.22.51.51,0,0,1,.22-.69.58.58,0,0,1,.26-.06m0,0a.66.66,0,0,0-.27.06.55.55,0,0,0-.24.74.52.52,0,0,0,.47.3.45.45,0,0,0,.27-.06.55.55,0,0,0,.24-.74.58.58,0,0,0-.47-.3Z" style="fill:#fff"></path><path d="M191,206.54a.42.42,0,0,1,.26.49s-.05.06-.08,0-.07-.1-.11-.14l-.14-.09c-.12,0-.19,0-.23-.14S190.76,206.44,191,206.54Z" style="fill:#fff;opacity:0.5"></path><path d="M190.73,206.62a.08.08,0,0,0,.06.1.09.09,0,0,0,.1-.07.09.09,0,0,0-.06-.1A.08.08,0,0,0,190.73,206.62Z" style="fill:#fff;opacity:0.6000000000000001"></path><path d="M233.41,220.42a.57.57,0,0,0-.1.67.58.58,0,0,0,.6.31.55.55,0,0,1-.74-.24A.56.56,0,0,1,233.41,220.42Z" style="fill:#fff;opacity:0.6000000000000001"></path><path d="M233.68,220.4a.5.5,0,0,1,.44.28.53.53,0,0,1,0,.39.5.5,0,0,1-.25.3.58.58,0,0,1-.26.06.55.55,0,0,1-.44-.28.52.52,0,0,1,.23-.69.46.46,0,0,1,.25-.06m0,0a.66.66,0,0,0-.27.06.55.55,0,0,0,.23,1,.43.43,0,0,0,.27-.06.55.55,0,0,0-.23-1Z" style="fill:#fff"></path><path d="M233.81,220.53a.43.43,0,0,1,.27.49s-.06.06-.09,0-.06-.1-.11-.14a.48.48,0,0,0-.14-.09c-.11,0-.19,0-.23-.14S233.59,220.43,233.81,220.53Z" style="fill:#fff;opacity:0.5"></path><path d="M233.56,220.6a.08.08,0,0,0,.06.1.08.08,0,0,0,.1-.06.08.08,0,0,0-.06-.1A.09.09,0,0,0,233.56,220.6Z" style="fill:#fff;opacity:0.6000000000000001"></path><path d="M194.8,193.17a2.11,2.11,0,0,0-.39,2.53,2.27,2.27,0,0,0,2.31,1.22,2.11,2.11,0,0,1-1.92-3.75Z" style="fill:#fff;opacity:0.6000000000000001"></path><path d="M195.84,193.07a2,2,0,0,1,1.8,2.58,2,2,0,1,1-1.8-2.58m0-.13a2,2,0,0,0-1,.23,2.11,2.11,0,0,0,.88,4,2.13,2.13,0,0,0,1-.23,2.1,2.1,0,0,0-.88-4Z" style="fill:#fff"></path><path d="M196.32,193.58a1.6,1.6,0,0,1,1,1.86c0,.1-.22.24-.33.12s-.24-.37-.42-.54a1.67,1.67,0,0,0-.54-.33c-.44-.12-.72-.13-.88-.53S195.48,193.19,196.32,193.58Z" style="fill:#fff;opacity:0.5"></path><path d="M195.37,193.86a.32.32,0,0,0,.24.38A.31.31,0,0,0,196,194a.32.32,0,0,0-.62-.14Z" style="fill:#fff;opacity:0.6000000000000001"></path><path d="M200.75,199.08a.56.56,0,0,0-.1.66.61.61,0,0,0,.61.32.56.56,0,0,1-.74-.24A.55.55,0,0,1,200.75,199.08Z" style="fill:#fff;opacity:0.6000000000000001"></path><path d="M201,199.05a.52.52,0,0,1,.44.28.45.45,0,0,1,0,.39.47.47,0,0,1-.25.3.57.57,0,0,1-.25.06.5.5,0,0,1-.44-.28.51.51,0,0,1,.22-.69.57.57,0,0,1,.25-.06m0,0a.48.48,0,0,0-.28.06.55.55,0,0,0,.23,1,.71.71,0,0,0,.28-.06.55.55,0,0,0,.23-.74.51.51,0,0,0-.46-.3Z" style="fill:#fff"></path><path d="M201.15,199.18a.42.42,0,0,1,.27.49s-.06.06-.09,0-.06-.1-.11-.14a.32.32,0,0,0-.14-.08c-.11,0-.18,0-.23-.14S200.93,199.08,201.15,199.18Z" style="fill:#fff;opacity:0.5"></path><path d="M200.9,199.26a.09.09,0,0,0,.07.1.08.08,0,0,0,.09-.06.07.07,0,0,0-.06-.1A.08.08,0,0,0,200.9,199.26Z" style="fill:#fff;opacity:0.6000000000000001"></path><path d="M223.56,208.88a.55.55,0,0,0-.1.66.58.58,0,0,0,.6.31.54.54,0,0,1-.74-.24A.54.54,0,0,1,223.56,208.88Z" style="fill:#fff;opacity:0.6000000000000001"></path><path d="M223.83,208.85a.54.54,0,0,1,.44.28.53.53,0,0,1,0,.39.48.48,0,0,1-.26.3.51.51,0,0,1-.25.06.54.54,0,0,1-.44-.28.52.52,0,0,1,.48-.75m0,0a.45.45,0,0,0-.27.06.54.54,0,0,0-.24.73.52.52,0,0,0,.47.3.45.45,0,0,0,.27-.06.55.55,0,0,0,.24-.74.53.53,0,0,0-.47-.29Z" style="fill:#fff"></path><path d="M224,209a.42.42,0,0,1,.26.49s-.05.06-.08,0-.06-.1-.11-.14l-.14-.09c-.12,0-.19,0-.23-.14S223.74,208.88,224,209Z" style="fill:#fff;opacity:0.5"></path><path d="M223.71,209.06a.09.09,0,0,0,.06.1.08.08,0,0,0,.1-.07.09.09,0,0,0-.06-.1A.08.08,0,0,0,223.71,209.06Z" style="fill:#fff;opacity:0.6000000000000001"></path><path d="M232.9,210.9a.56.56,0,0,0-.1.66.59.59,0,0,0,.6.32.54.54,0,0,1-.73-.24A.55.55,0,0,1,232.9,210.9Z" style="fill:#fff;opacity:0.6000000000000001"></path><path d="M233.17,210.88a.49.49,0,0,1,.44.28.45.45,0,0,1,0,.39.5.5,0,0,1-.25.3.47.47,0,0,1-.26.05.48.48,0,0,1-.43-.28.51.51,0,0,1,.22-.69.45.45,0,0,1,.25-.05m0,0a.67.67,0,0,0-.28.06.55.55,0,0,0,.23,1,.63.63,0,0,0,.27-.06.54.54,0,0,0,.24-.74.55.55,0,0,0-.46-.3Z" style="fill:#fff"></path><path d="M233.3,211a.41.41,0,0,1,.27.48s-.06.07-.09,0a.76.76,0,0,0-.11-.14.26.26,0,0,0-.14-.09c-.11,0-.18,0-.23-.14S233.08,210.91,233.3,211Z" style="fill:#fff;opacity:0.5"></path><path d="M233.05,211.08a.08.08,0,0,0,.16,0,.08.08,0,0,0-.06-.1A.09.09,0,0,0,233.05,211.08Z" style="fill:#fff;opacity:0.6000000000000001"></path><path d="M243.46,207a.56.56,0,0,0-.1.66.59.59,0,0,0,.6.32.54.54,0,0,1-.73-.24A.55.55,0,0,1,243.46,207Z" style="fill:#fff;opacity:0.6000000000000001"></path><path d="M243.73,207a.49.49,0,0,1,.44.28.45.45,0,0,1,0,.39.5.5,0,0,1-.25.3.47.47,0,0,1-.26.05.49.49,0,0,1-.43-.27.52.52,0,0,1,.22-.7.45.45,0,0,1,.25-.05m0,0a.67.67,0,0,0-.28.06.55.55,0,0,0,.23,1A.63.63,0,0,0,244,208a.55.55,0,0,0-.22-1Z" style="fill:#fff"></path><path d="M243.86,207.1a.41.41,0,0,1,.27.48s-.06.07-.09,0a.76.76,0,0,0-.11-.14.26.26,0,0,0-.14-.09c-.11,0-.18,0-.23-.14S243.64,207,243.86,207.1Z" style="fill:#fff;opacity:0.5"></path><path d="M243.61,207.17a.08.08,0,0,0,.16,0,.08.08,0,0,0-.06-.1A.09.09,0,0,0,243.61,207.17Z" style="fill:#fff;opacity:0.6000000000000001"></path></g><g id="freepik--Fingers--inject-109"><path d="M203.66,259.16a11.44,11.44,0,0,0-5.39,8.49,12.06,12.06,0,0,0,1.07,6.19,67.1,67.1,0,0,0-8.25,3.88c-3.63,2.11-6.71,4.81-6.15,10.82-3.77.67-6.89,2.47-7.09,7.44-.22,5.59,5.43,6.68,5.43,6.68s-6.51-.53-6.89,4.84c-.45,6.36,5.21,7.37,9.12,8.28A60.63,60.63,0,0,0,197.2,317c2.41,0,5.38-.68,11-3.1,4.47-1.92,5.37-4.73,6.1-9.39a6.2,6.2,0,0,0-3.54-6.52s7.59-3.43,11.32-6.85,3.55-10.85-1.35-14.19c2.43-2.28,3.49-4,3.79-7.11s-.32-7.4-3.55-9.08a107.71,107.71,0,0,0-2.36-10.65S209.15,255.67,203.66,259.16Z" style="fill:#b16668"></path><path d="M200,310.11c0-.69-.11-1.37-.2-2.05a10,10,0,0,0-.44-2.11c-.05-.12-.14,0-.14.05a10.41,10.41,0,0,0,.14,1.85c.07.66.15,1.31.23,2s.15,1.52.19,2.28,0,1.31.11,2c0,.18.29.33.33.07a10.68,10.68,0,0,0-.06-2C200.13,311.47,200.06,310.79,200,310.11Zm-1.28,1.9a.15.15,0,0,0-.09-.06c.13,0,.16-.09.09-.19a.88.88,0,0,1,0-.15l-.09-.26c0-.14-.1-.28-.14-.43a5.13,5.13,0,0,1-.22-.94,8.07,8.07,0,0,1-.07-1,5.07,5.07,0,0,0-.1-1.23c0-.07-.1-.18-.19-.13-.34.21-.38.79-.4,1.15a5.7,5.7,0,0,0,.07,1.24,6.59,6.59,0,0,0,.3,1.22,2.72,2.72,0,0,0,.72,1.18.16.16,0,0,0,.27-.11.37.37,0,0,0,0-.21A.36.36,0,0,0,198.73,312Zm2.69-4.28c-.09-.25-.53-.42-.58-.05a6.84,6.84,0,0,0,0,1q0,.46,0,.93c0,.31,0,.61,0,.92a3,3,0,0,0,.1,1.12c0,.09.15.22.25.14a1,1,0,0,0,.23-.37,1.26,1.26,0,0,0,.1-.33l.06-.44a4.9,4.9,0,0,0,.07-.94A6.05,6.05,0,0,0,201.42,307.73Z" style="fill:#9a4a4d"></path><path d="M204.17,294.58,204,293a15.92,15.92,0,0,0-.33-1.83c-.06-.25-.42-.37-.44,0a17,17,0,0,0,.22,3.18c.06.53.13,1.05.21,1.57a3.35,3.35,0,0,0,.53,1.64.08.08,0,0,0,.1,0c.3-.36.17-1,.12-1.4S204.24,295.1,204.17,294.58Zm-1.6.48a3,3,0,0,1-.07-.51,1.77,1.77,0,0,1,0-.23,1.11,1.11,0,0,0-.09-.43c-.06-.17-.27-.38-.42-.17a.56.56,0,0,0-.11.37c0,.1,0,.2,0,.3s0,.39,0,.58a4.67,4.67,0,0,0,.13.65,2.66,2.66,0,0,0,.4.74.2.2,0,0,0,.23.09.26.26,0,0,0,.1-.25,4.76,4.76,0,0,0-.08-.66C202.64,295.38,202.6,295.22,202.57,295.06ZM221.83,283a7,7,0,0,0-1.31-2.86c-.16-.17-.23.14-.18.25a15.65,15.65,0,0,1,.95,2.55,9.56,9.56,0,0,1,.21,1.32c0,.55.14,1.11.16,1.67,0,.14.2.27.24.07a4.51,4.51,0,0,0,.19-1.46A8.85,8.85,0,0,0,221.83,283Z" style="fill:#9a4a4d"></path><path d="M207.62,281.83a26.36,26.36,0,0,0-1.53-4.78c-.14-.32-.4-.06-.3.2a30.77,30.77,0,0,1,1.38,4.72c.14.74.26,1.49.35,2.25a8.33,8.33,0,0,0,.34,2.17c0,.07.12.12.16,0a4.39,4.39,0,0,0,0-2.19C207.93,283.42,207.79,282.62,207.62,281.83Zm-1.21,1.92a1.07,1.07,0,0,0-.08-.56c-.05-.13-.09-.27-.14-.41s-.15-.52-.23-.78-.14-.53-.2-.79-.17-.62-.25-.94c0-.09-.08-.22-.2-.22s-.15.13-.15.23a4.41,4.41,0,0,0,0,.89c.05.35.11.69.18,1a7.71,7.71,0,0,0,.24.82l.15.4a2,2,0,0,0,.41.62c.11.12.25,0,.27-.12a1.07,1.07,0,0,0,0-.36Zm2.75-2.39a2.64,2.64,0,0,0-.07-.3,5.68,5.68,0,0,0-.46-1.41c-.07-.13-.21-.29-.38-.27s-.21.18-.21.32a1.84,1.84,0,0,0,.05.41c0,.1,0,.2.08.3s.09.4.13.61a2.46,2.46,0,0,0,.21.7s0,0,0,0l0,.08.05.11c0,.14.17.39.35.4a.17.17,0,0,0,.1,0h0a.18.18,0,0,0,.1-.09.91.91,0,0,0,.06-.49,1.93,1.93,0,0,0,0-.24Z" style="fill:#9a4a4d"></path><path d="M219.47,262.72a6.41,6.41,0,0,0-2.56-2.65c-.13-.07-.15.24-.07.3a6.65,6.65,0,0,1,2,2.63,9,9,0,0,1,.62,3.15c0,.36.58.76.69.25A5.58,5.58,0,0,0,219.47,262.72Zm-.68,3.17-.09-.34c-.07-.25-.15-.49-.23-.73a12.84,12.84,0,0,0-.59-1.37c0-.09-.15-.13-.22-.06a.33.33,0,0,0,0,.33,11.86,11.86,0,0,1,.5,1.29c.07.22.13.45.19.67a3.12,3.12,0,0,0,.24.73c0,.06.11.12.18.06s.1-.26.05-.26,0,0,0,0,0-.09,0-.13Z" style="fill:#9a4a4d"></path><path d="M207.61,256.7l-4,2.46a11.44,11.44,0,0,0-5.39,8.49,9.11,9.11,0,0,0,.15,3.35,20.9,20.9,0,0,0,7.54-7.63C207.19,261.36,208.2,259,207.61,256.7Z" style="fill:#9a4a4d"></path><polygon points="213.98 252.84 207.5 258.78 206.72 257.21 213.98 252.84" style="fill:#9a4a4d"></polygon><path d="M209.53,265.19a31.77,31.77,0,0,0-5.66,2.76c-2.25,1.42-3.29,5.86-1.13,7.11s9.11-3.67,9.11-3.67A4.56,4.56,0,0,0,209.53,265.19Z" style="fill:#b16668"></path><path d="M209.53,265.19a31.77,31.77,0,0,0-5.66,2.76c-2.25,1.42-3.29,5.86-1.13,7.11s9.11-3.67,9.11-3.67A4.56,4.56,0,0,0,209.53,265.19Z" style="fill:#fff;opacity:0.2"></path><path d="M209.53,265.19a8.35,8.35,0,0,0,2.32,6.2A4.56,4.56,0,0,0,209.53,265.19Z" style="fill:#fff;opacity:0.30000000000000004"></path><path d="M197.12,282a32.79,32.79,0,0,0-9,1.45c-1.89.67-3.29,7.66,1.43,8.27a43.33,43.33,0,0,0,9-1.92S201.72,285.11,197.12,282Z" style="fill:#b16668"></path><path d="M197.12,282a32.79,32.79,0,0,0-9,1.45c-1.89.67-3.29,7.66,1.43,8.27a43.33,43.33,0,0,0,9-1.92S201.72,285.11,197.12,282Z" style="fill:#fff;opacity:0.2"></path><path d="M197.12,282a8.72,8.72,0,0,0,1.4,7.8S201.72,285.11,197.12,282Z" style="fill:#fff;opacity:0.30000000000000004"></path><path d="M187.87,305.55a23.87,23.87,0,0,0-7.59-.6c-1.85.15-3.93,6.08.13,7.74a21.69,21.69,0,0,0,6.87.15S191.23,309.44,187.87,305.55Z" style="fill:#b16668"></path><path d="M187.87,305.55a23.87,23.87,0,0,0-7.59-.6c-1.85.15-3.93,6.08.13,7.74a21.69,21.69,0,0,0,6.87.15S191.23,309.44,187.87,305.55Z" style="fill:#fff;opacity:0.2"></path><path d="M187.87,305.55a8,8,0,0,0-.59,7.29S191.23,309.44,187.87,305.55Z" style="fill:#fff;opacity:0.30000000000000004"></path><path d="M192.72,293.44c.72,1.55,1,4.47-.31,5.6a74.9,74.9,0,0,1-8.19,1.15c-1.31.05-3.21-1.07-3.52-4.13-.24-2.33.33-4.76,4.87-5.35C186.19,292.34,188.4,294,192.72,293.44Z" style="fill:#b16668"></path><path d="M192.72,293.44c.72,1.55,1,4.47-.31,5.6a74.9,74.9,0,0,1-8.19,1.15c-1.31.05-3.21-1.07-3.52-4.13-.24-2.33.33-4.76,4.87-5.35C186.19,292.34,188.4,294,192.72,293.44Z" style="fill:#fff;opacity:0.2"></path><path d="M192.72,293.44a13.12,13.12,0,0,1-2.46.08c.49,1.94,1.31,4.73,2.15,5.52l.43-.51C193.67,297.19,193.35,294.79,192.72,293.44Z" style="fill:#fff;opacity:0.30000000000000004"></path><path d="M200.52,275.31c3.26,1.85,9.29-2.12,12.41-3.48,4.38-2.25,10.16-5.17,8-11.11a9,9,0,0,1-.09,3.66c-1.27,3.54-5.27,4.94-8.35,6.67-2.22,1.13-4.42,2.3-6.67,3.31-1.64.67-3.51,1.51-5.22.75a3.51,3.51,0,0,1-1.3-1.27A3.32,3.32,0,0,0,200.52,275.31Zm-1.86,16.53c-3.44.81-7.21,2.08-10.66.84a5.09,5.09,0,0,1-3.06-4.14,6.25,6.25,0,0,0,.8,2.65c2.79,4.2,9.08,2.32,13.12,1.43,3.58-1,7.46-1.2,10.57-3.54,4-3.82,7.63-8,11.3-12.17-3.85,3.61-7.95,8-11.82,11.56C206,290.55,202.05,290.82,198.66,291.84Zm-11.84,10.68c-1.18.07-2.36.1-3.54.14a76.54,76.54,0,0,0,14.2.09,25.48,25.48,0,0,0,7-1.38,46.77,46.77,0,0,0,6.25-3.42c-2.23.82-4.26,2.11-6.48,2.78C198.65,302.27,192.63,302.13,186.82,302.52Z" style="fill:#9a4a4d"></path><path d="M150.66,257.87c8.81-2.72,10.81-3.81,17.64-3.66,7.67.15,14.2.24,17.63-1.18,5.75-2.36,14-8.78,16.9-7.2s6.7,8.4.57,17.86c-3.27,5.06-9.88,9-18.82,10.8s-11.93,2.35-11.93,2.35a6.68,6.68,0,0,1-1.73,2.93c-.51,3.24-3.75,7.62-7.57,10.73-6.69,5.45-20.76,10.33-32,5.35-15-6.64-15.21-9.68-11.61-16.9S134.53,262.63,150.66,257.87Z" style="fill:#b16668"></path><path d="M176.23,257.82a3.11,3.11,0,0,0,.6.79,3.83,3.83,0,0,0,.67.6c.15.09.29-.06.23-.22s-.18-.49-.25-.75a3.65,3.65,0,0,0-.27-.69,6.44,6.44,0,0,1-.37-1.07,6.15,6.15,0,0,1-.16-1.13c0-.35,0-.73,0-1.08H175.6a4.46,4.46,0,0,0,0,.88,6.87,6.87,0,0,0,.2,1.36A5.78,5.78,0,0,0,176.23,257.82Z" style="fill:#9a4a4d"></path><path d="M182.33,254.45l.33,1.88c.11.6.21,1.21.29,1.83s.25,1.4.3,2.12c0,.05.09.17.14.09.71-1.06.41-2.35.24-3.53-.09-.65-.19-1.31-.33-1.95-.08-.36-.14-.73-.23-1.1l-.85.13C182.26,254.1,182.3,254.28,182.33,254.45Z" style="fill:#9a4a4d"></path><path d="M178.79,256.11a12.59,12.59,0,0,0,.73,2.9,10.58,10.58,0,0,0,3.34,5.08c.25.17.7.1.54-.3a16.39,16.39,0,0,0-1.34-2.28,16.92,16.92,0,0,1-1.15-2.34,24.36,24.36,0,0,1-1-3.64c-.11-.45-.22-.91-.3-1.37l-.78,0A9.38,9.38,0,0,0,178.79,256.11Z" style="fill:#9a4a4d"></path><path d="M203,245.49c-1.61-.76-3.45.12-4.91.73-3.17,1.47-6.08,3.41-9.11,5.1-4,2.34-8.86,2.6-13.49,2.68-9.23.12-12.33-.82-25.72,4.13,8.72-3.23,16.47-3.58,25.74-3.61,4.68,0,9.76-.28,13.8-2.6,3.06-1.65,5.95-3.55,9.09-5,1.36-.54,2.85-1.31,4.23-.74,3.5,2.25,4.14,7,3.25,10.85-4,15.36-20.19,16.78-33.32,19.44l-.24,0a6.11,6.11,0,0,1-1.67,3l-.1.09,0,.14a13.87,13.87,0,0,1-2.43,5.23c-4.66,6.41-11.32,9.88-18.86,12.1a27.79,27.79,0,0,1-17.95-1.19c4.31,1.87,11.72,3.93,17.54,2.44,7.7-2.1,15-6.5,19.84-13a14.31,14.31,0,0,0,2.57-5.39,6.64,6.64,0,0,0,1.67-2.77c13.49-2.64,29.71-4.15,33.79-20C207.67,253.11,206.88,247.88,203,245.49Z" style="fill:#9a4a4d"></path><path d="M188.93,251.75c.23,3,1.55,5.86,3.18,7.17,5.68-2.51,8.56-4.64,9.82-7.22s1.17-6.28-.92-6.69S188.93,251.75,188.93,251.75Z" style="fill:#b16668"></path><path d="M188.93,251.75c.23,3,1.55,5.86,3.18,7.17,5.68-2.51,8.56-4.64,9.82-7.22s1.17-6.28-.92-6.69S188.93,251.75,188.93,251.75Z" style="fill:#fff;opacity:0.2"></path><path d="M192.07,258.89l0-.05c.58-5.39-2.6-6.93-3.11-7.14l-.07.05C189.16,254.69,190.46,257.56,192.07,258.89Z" style="fill:#fff;opacity:0.30000000000000004"></path><path d="M151.76,278.4c5,4.8,14.67,5,18.65,3a20.33,20.33,0,0,0,.49-2.17C167.41,282.08,156.61,281.32,151.76,278.4ZM162.27,275c1.67,2.36,6.4,3.27,10,2.9a13.42,13.42,0,0,0,.41-1.41A19.42,19.42,0,0,1,162.27,275Z" style="fill:#9a4a4d"></path></g></g></g><g id="freepik--Sparkles--inject-109"><path id="freepik--Shine--inject-109" d="M423.67,108.28l-5.21-.58a1.06,1.06,0,0,1-.94-1l-.6-6.65a.35.35,0,0,0-.7,0l-.6,6.65a1.06,1.06,0,0,1-.94,1l-5.21.58a.35.35,0,0,0,0,.7l5.21.57a1.08,1.08,0,0,1,.94,1l.6,6.64a.35.35,0,0,0,.7,0l.6-6.64a1.08,1.08,0,0,1,.94-1l5.21-.57a.35.35,0,0,0,0-.7Zm-5.28.57a1.78,1.78,0,0,0-1.57,1.6l-.25,2.76-.25-2.76a1.78,1.78,0,0,0-1.57-1.6l-2-.22,2-.23a1.76,1.76,0,0,0,1.57-1.6l.25-2.75.25,2.75a1.76,1.76,0,0,0,1.57,1.6l2,.23ZM252.07,295.93a.36.36,0,0,0-.32-.35l-5.2-.58a1.07,1.07,0,0,1-1-1l-.6-6.65a.35.35,0,0,0-.35-.32.36.36,0,0,0-.35.32l-.6,6.65a1.06,1.06,0,0,1-.94,1l-5.21.58a.35.35,0,0,0,0,.7l5.21.57a1.07,1.07,0,0,1,.94,1l.6,6.64a.36.36,0,0,0,.35.32.35.35,0,0,0,.35-.32l.6-6.64a1.08,1.08,0,0,1,1-1l5.2-.57A.36.36,0,0,0,252.07,295.93Zm-5.6.22a1.79,1.79,0,0,0-1.57,1.6l-.25,2.76-.25-2.76a1.78,1.78,0,0,0-1.57-1.6l-2-.22,2-.23a1.76,1.76,0,0,0,1.57-1.6l.25-2.75.25,2.75a1.77,1.77,0,0,0,1.57,1.6l2,.23ZM70,117.8l-3.65-.41a.75.75,0,0,1-.66-.67l-.42-4.65a.25.25,0,0,0-.49,0l-.42,4.65a.75.75,0,0,1-.66.67l-3.65.41a.24.24,0,0,0-.22.24.26.26,0,0,0,.22.25l3.65.4a.75.75,0,0,1,.66.67l.42,4.66a.25.25,0,0,0,.49,0l.42-4.66a.75.75,0,0,1,.66-.67l3.65-.4a.26.26,0,0,0,.22-.25A.24.24,0,0,0,70,117.8Zm-3.7.4a1.23,1.23,0,0,0-1.1,1.12L65,121.25l-.18-1.93a1.23,1.23,0,0,0-1.1-1.12L62.32,118l1.43-.16a1.23,1.23,0,0,0,1.1-1.12l.18-1.92.17,1.92a1.23,1.23,0,0,0,1.1,1.12l1.43.16Zm34.77,129.69L96,247.33a1.06,1.06,0,0,1-.93-1l-.59-6.52a.34.34,0,0,0-.34-.32.36.36,0,0,0-.35.32l-.58,6.52a1.06,1.06,0,0,1-.93,1l-5.12.56a.35.35,0,0,0,0,.69l5.12.57a1.05,1.05,0,0,1,.93.94l.58,6.53a.36.36,0,0,0,.35.32.34.34,0,0,0,.34-.32l.59-6.53a1.05,1.05,0,0,1,.93-.94l5.12-.57a.35.35,0,0,0,0-.69Zm-5.2.57A1.75,1.75,0,0,0,94.33,250l-.24,2.7-.25-2.7a1.74,1.74,0,0,0-1.54-1.57l-2-.22,2-.22a1.74,1.74,0,0,0,1.54-1.58h0l.25-2.7.24,2.7A1.75,1.75,0,0,0,95.87,248l2,.22Zm63.73-74.77-5.11-.56a1.05,1.05,0,0,1-.93-.95l-.59-6.53a.33.33,0,0,0-.34-.31.35.35,0,0,0-.35.31l-.59,6.53a1.05,1.05,0,0,1-.92.95l-5.12.56a.35.35,0,0,0,0,.69l5.12.57a1,1,0,0,1,.92.94l.59,6.53a.35.35,0,0,0,.35.31.33.33,0,0,0,.34-.31l.59-6.53a1,1,0,0,1,.93-.94l5.11-.57a.35.35,0,0,0,0-.69Zm-5.19.57a1.74,1.74,0,0,0-1.54,1.57l-.24,2.7-.25-2.7a1.74,1.74,0,0,0-1.54-1.57l-2-.22,2-.23a1.74,1.74,0,0,0,1.54-1.57h0l.25-2.7.24,2.7a1.74,1.74,0,0,0,1.54,1.57l2,.23Zm62.84-95.58-7.93-.88a1.62,1.62,0,0,1-1.44-1.47L207,66.21a.53.53,0,0,0-.53-.49.54.54,0,0,0-.54.49L205,76.34a1.62,1.62,0,0,1-1.44,1.46l-7.93.88a.54.54,0,0,0,0,1.07l7.93.88A1.62,1.62,0,0,1,205,82.1l.91,10.12a.54.54,0,0,0,.54.49.53.53,0,0,0,.53-.49l.92-10.13a1.62,1.62,0,0,1,1.44-1.46l7.93-.88a.54.54,0,0,0,0-1.07Zm-8.05.88A2.7,2.7,0,0,0,206.81,82l-.38,4.19L206.05,82a2.7,2.7,0,0,0-2.39-2.44l-3.11-.35,3.11-.34a2.7,2.7,0,0,0,2.39-2.44h0l.38-4.19.38,4.19a2.7,2.7,0,0,0,2.39,2.44l3.1.34ZM125.25,360.75l-6.54-.72a1.34,1.34,0,0,1-1.19-1.21l-.75-8.35a.45.45,0,0,0-.89,0l-.75,8.35a1.35,1.35,0,0,1-1.19,1.21l-6.54.72a.45.45,0,0,0,0,.89l6.54.72a1.35,1.35,0,0,1,1.19,1.21l.75,8.35a.45.45,0,0,0,.89,0l.75-8.35a1.34,1.34,0,0,1,1.19-1.21l6.54-.72a.45.45,0,0,0,0-.89Zm-6.64.73a2.22,2.22,0,0,0-2,2l-.32,3.46-.31-3.46a2.22,2.22,0,0,0-2-2l-2.56-.29,2.56-.28a2.22,2.22,0,0,0,2-2h0l.31-3.46.32,3.46a2.22,2.22,0,0,0,2,2l2.56.28Zm306.12-87.33-8-.88a1.64,1.64,0,0,1-1.45-1.48l-.92-10.19a.54.54,0,0,0-.54-.49.54.54,0,0,0-.54.49l-.91,10.19a1.65,1.65,0,0,1-1.45,1.48l-8,.88a.56.56,0,0,0-.48.54.54.54,0,0,0,.48.54l8,.88a1.65,1.65,0,0,1,1.45,1.48l.91,10.19a.54.54,0,0,0,.54.49.54.54,0,0,0,.54-.49l.92-10.19a1.65,1.65,0,0,1,1.45-1.48l8-.88a.54.54,0,0,0,.48-.54A.56.56,0,0,0,424.73,274.15Zm-8.11.89a2.73,2.73,0,0,0-2.41,2.45l-.38,4.22-.38-4.22a2.72,2.72,0,0,0-2.4-2.45l-3.13-.35,3.13-.34a2.73,2.73,0,0,0,2.4-2.46h0l.38-4.22.38,4.22a2.74,2.74,0,0,0,2.41,2.46l3.13.34ZM307.14,128.27l-4.06-.44a.83.83,0,0,1-.73-.76l-.47-5.17a.26.26,0,0,0-.27-.25.28.28,0,0,0-.28.25l-.46,5.18a.85.85,0,0,1-.74.75l-4.06.44a.28.28,0,0,0-.24.28.27.27,0,0,0,.24.27l4.06.45a.84.84,0,0,1,.74.75l.46,5.18a.29.29,0,0,0,.28.25.27.27,0,0,0,.27-.25l.47-5.18a.82.82,0,0,1,.73-.75l4.06-.45a.28.28,0,0,0,.25-.27A.29.29,0,0,0,307.14,128.27Zm-4.12.45A1.38,1.38,0,0,0,301.8,130l-.19,2.14-.2-2.14a1.38,1.38,0,0,0-1.22-1.25l-1.59-.17,1.59-.18a1.37,1.37,0,0,0,1.22-1.25h0l.2-2.14.19,2.14a1.38,1.38,0,0,0,1.22,1.25l1.59.18Zm88,43.66-5.23-.58a1.06,1.06,0,0,1-.94-1l-.6-6.67a.36.36,0,0,0-.71,0l-.6,6.67a1.06,1.06,0,0,1-1,1l-5.22.58a.35.35,0,0,0,0,.7l5.22.58a1.07,1.07,0,0,1,1,1l.6,6.66a.36.36,0,0,0,.71,0l.6-6.66a1.07,1.07,0,0,1,.94-1l5.23-.58a.35.35,0,0,0,0-.7Zm-5.3.58a1.79,1.79,0,0,0-1.58,1.6l-.25,2.76-.25-2.76a1.77,1.77,0,0,0-1.57-1.6l-2-.23,2-.22a1.78,1.78,0,0,0,1.57-1.61l.25-2.76.25,2.76a1.8,1.8,0,0,0,1.58,1.61l2,.22Zm-32.12,23.8-5.22-.58a1.06,1.06,0,0,1-1-1l-.6-6.67a.36.36,0,0,0-.71,0l-.6,6.67a1.06,1.06,0,0,1-.94,1l-5.23.58a.35.35,0,0,0,0,.7l5.23.58a1.07,1.07,0,0,1,.94,1l.6,6.66a.36.36,0,0,0,.71,0l.6-6.66a1.07,1.07,0,0,1,1-1l5.22-.58a.35.35,0,0,0,0-.7Zm-5.3.58a1.77,1.77,0,0,0-1.57,1.6l-.25,2.77-.25-2.77a1.79,1.79,0,0,0-1.58-1.6l-2-.23,2-.22a1.8,1.8,0,0,0,1.58-1.61l.25-2.76.25,2.76a1.78,1.78,0,0,0,1.57,1.61l2,.22Zm-3.09,211.94L340,408.7a1.08,1.08,0,0,1-.95-1l-.6-6.66a.35.35,0,0,0-.7,0l-.6,6.66a1.08,1.08,0,0,1-1,1l-5.22.58a.35.35,0,0,0,0,.7l5.22.58a1.07,1.07,0,0,1,1,1l.6,6.67a.35.35,0,0,0,.7,0l.6-6.67a1.07,1.07,0,0,1,.95-1l5.23-.58a.35.35,0,0,0,0-.7Zm-5.31.57a1.79,1.79,0,0,0-1.57,1.61l-.25,2.76-.25-2.76a1.79,1.79,0,0,0-1.57-1.61l-2.05-.22,2.05-.23a1.78,1.78,0,0,0,1.57-1.6l.25-2.77.25,2.77a1.78,1.78,0,0,0,1.57,1.6l2.05.23ZM257,388.05l-5.23-.58a1.08,1.08,0,0,1-.95-1l-.6-6.66a.34.34,0,0,0-.35-.32.35.35,0,0,0-.35.32l-.6,6.66a1.08,1.08,0,0,1-1,1l-5.22.58a.35.35,0,0,0,0,.7l5.22.58a1.07,1.07,0,0,1,1,1l.6,6.67a.36.36,0,0,0,.35.32.35.35,0,0,0,.35-.32l.6-6.67a1.07,1.07,0,0,1,.95-1l5.23-.58a.35.35,0,0,0,0-.7Zm-5.31.57a1.79,1.79,0,0,0-1.57,1.61l-.25,2.76-.25-2.76a1.79,1.79,0,0,0-1.57-1.61L246,388.4l2.05-.23a1.78,1.78,0,0,0,1.57-1.6l.25-2.77.25,2.77a1.78,1.78,0,0,0,1.57,1.6l2.05.23Z" style="fill:#3B82F6;opacity:0.30000000000000004"></path><path id="freepik--shine--inject-109" d="M374.1,156.83a.36.36,0,0,0-.32-.35l-7.67-.85a1.75,1.75,0,0,1-1.54-1.57l-.88-9.79a.36.36,0,0,0-.71,0l-.88,9.79a1.74,1.74,0,0,1-1.54,1.57l-7.67.85a.35.35,0,0,0,0,.7l7.67.85a1.74,1.74,0,0,1,1.54,1.57l.88,9.79a.36.36,0,0,0,.71,0l.88-9.79a1.75,1.75,0,0,1,1.54-1.57l7.67-.85A.36.36,0,0,0,374.1,156.83Zm-8.07.5a2.43,2.43,0,0,0-2.16,2.2l-.53,5.89-.53-5.89a2.45,2.45,0,0,0-2.17-2.2l-4.49-.5,4.49-.5a2.45,2.45,0,0,0,2.17-2.21l.53-5.88.53,5.88a2.43,2.43,0,0,0,2.16,2.21l4.5.5ZM79.92,230.74,73.5,230a1.33,1.33,0,0,1-1.17-1.19l-.73-8.2a.44.44,0,0,0-.87,0l-.74,8.2A1.32,1.32,0,0,1,68.83,230l-6.43.71a.43.43,0,0,0,0,.86l6.43.71A1.31,1.31,0,0,1,70,233.5l.74,8.2a.44.44,0,0,0,.87,0l.73-8.2a1.33,1.33,0,0,1,1.17-1.19l6.42-.71a.43.43,0,0,0,0-.86Zm-6.36.73a2.34,2.34,0,0,0-2.07,2.11l-.33,3.63-.32-3.63a2.34,2.34,0,0,0-2.07-2.11l-2.69-.3,2.69-.3a2.33,2.33,0,0,0,2.07-2.11h0l.32-3.63.33,3.63a2.33,2.33,0,0,0,2.07,2.11l2.69.3Zm368.84,25.4-4.93-.55a1.1,1.1,0,0,1-1-1l-.57-6.29a.23.23,0,0,0-.22-.2.23.23,0,0,0-.23.2l-.57,6.29a1.1,1.1,0,0,1-1,1l-4.93.55a.23.23,0,0,0-.2.22.23.23,0,0,0,.2.23l4.93.54a1.11,1.11,0,0,1,1,1l.57,6.28a.23.23,0,0,0,.45,0l.57-6.28a1.11,1.11,0,0,1,1-1l4.93-.54a.23.23,0,0,0,.2-.23A.23.23,0,0,0,442.4,256.87Zm-5,.54a1.57,1.57,0,0,0-1.38,1.42l-.34,3.78-.35-3.78a1.57,1.57,0,0,0-1.38-1.42l-2.89-.32,2.89-.32a1.56,1.56,0,0,0,1.38-1.41l.35-3.78.34,3.78a1.56,1.56,0,0,0,1.38,1.41l2.89.32ZM457.73,145.5l-8.84-1a2,2,0,0,1-1.77-1.81l-1-11.28a.41.41,0,0,0-.81,0l-1,11.28a2,2,0,0,1-1.77,1.81l-8.85,1a.4.4,0,0,0-.36.4.42.42,0,0,0,.36.41l8.85,1a2,2,0,0,1,1.77,1.81l1,11.29a.41.41,0,0,0,.81,0l1-11.29a2,2,0,0,1,1.77-1.81l8.84-1a.42.42,0,0,0,.37-.41A.4.4,0,0,0,457.73,145.5Zm-8.93,1a2.83,2.83,0,0,0-2.5,2.55l-.61,6.78-.61-6.78a2.83,2.83,0,0,0-2.49-2.55l-5.18-.57,5.18-.57a2.83,2.83,0,0,0,2.49-2.55l.61-6.78.61,6.78a2.83,2.83,0,0,0,2.5,2.55l5.18.57ZM93.19,104.15l-5.12-.57a1.05,1.05,0,0,1-.93-.94l-.59-6.53a.34.34,0,0,0-.68,0l-.59,6.53a1.05,1.05,0,0,1-.93.94l-5.12.57a.35.35,0,0,0,0,.69l5.12.56a1.07,1.07,0,0,1,.93.95l.59,6.53a.34.34,0,0,0,.68,0l.59-6.53a1.07,1.07,0,0,1,.93-.95l5.12-.56a.35.35,0,0,0,0-.69Zm-5.2.57a1.76,1.76,0,0,0-1.54,1.57l-.24,2.7-.24-2.7a1.76,1.76,0,0,0-1.54-1.57l-2-.23,2-.22A1.76,1.76,0,0,0,86,102.7h0l.24-2.7.24,2.7A1.76,1.76,0,0,0,88,104.27l2,.22ZM281.28,315.06l-7-.78A1.43,1.43,0,0,1,273,313l-.81-8.92a.46.46,0,0,0-.47-.43.47.47,0,0,0-.47.43l-.8,8.92a1.44,1.44,0,0,1-1.27,1.29l-7,.78a.46.46,0,0,0-.42.47.48.48,0,0,0,.42.47l7,.77a1.44,1.44,0,0,1,1.27,1.29l.8,8.93a.48.48,0,0,0,.47.43.47.47,0,0,0,.47-.43l.81-8.93a1.43,1.43,0,0,1,1.27-1.29l7-.77a.48.48,0,0,0,.42-.47A.46.46,0,0,0,281.28,315.06Zm-6.69.82a2.78,2.78,0,0,0-2.46,2.5l-.39,4.31-.38-4.3a2.78,2.78,0,0,0-2.46-2.51l-3.19-.35,3.19-.36a2.77,2.77,0,0,0,2.46-2.5h0l.38-4.31.39,4.31a2.77,2.77,0,0,0,2.46,2.5l3.19.36ZM288,116l-7.29-.81a1.67,1.67,0,0,1-1.47-1.49l-.84-9.31a.33.33,0,0,0-.33-.31.34.34,0,0,0-.34.31l-.84,9.31a1.66,1.66,0,0,1-1.46,1.49l-7.29.81a.32.32,0,0,0-.3.33.33.33,0,0,0,.3.33l7.29.81a1.64,1.64,0,0,1,1.46,1.49l.84,9.31a.34.34,0,0,0,.34.31.33.33,0,0,0,.33-.31l.84-9.31a1.66,1.66,0,0,1,1.47-1.49l7.29-.81a.33.33,0,0,0,.3-.33A.33.33,0,0,0,288,116Zm-7.37.8a2.34,2.34,0,0,0-2.06,2.1l-.5,5.6-.51-5.6a2.32,2.32,0,0,0-2-2.1l-4.28-.47,4.28-.47a2.32,2.32,0,0,0,2-2.1l.51-5.6.5,5.6a2.34,2.34,0,0,0,2.06,2.1l4.27.47ZM179.59,143.43l-7.62-.84a1.55,1.55,0,0,1-1.38-1.41l-.88-9.72a.51.51,0,0,0-.51-.47.52.52,0,0,0-.52.47l-.87,9.72a1.57,1.57,0,0,1-1.39,1.41l-7.62.84a.52.52,0,0,0,0,1l7.62.84a1.57,1.57,0,0,1,1.39,1.41l.87,9.73a.53.53,0,0,0,.52.47.52.52,0,0,0,.51-.47l.88-9.73A1.56,1.56,0,0,1,172,145.3l7.62-.84a.52.52,0,0,0,0-1Zm-7.32.9a3,3,0,0,0-2.65,2.71l-.42,4.66-.42-4.66a3,3,0,0,0-2.66-2.71l-3.45-.38,3.45-.38a3,3,0,0,0,2.66-2.72h0l.42-4.66.42,4.66a3,3,0,0,0,2.65,2.72l3.46.38ZM390.79,379.61l-8.7-1a2,2,0,0,1-1.74-1.78l-1-11.09a.4.4,0,0,0-.8,0l-1,11.09a2,2,0,0,1-1.74,1.78l-8.69,1a.4.4,0,0,0-.36.4.41.41,0,0,0,.36.4l8.69,1a2,2,0,0,1,1.74,1.78l1,11.09a.4.4,0,0,0,.8,0l1-11.09a2,2,0,0,1,1.74-1.78l8.7-1a.41.41,0,0,0,.35-.4A.4.4,0,0,0,390.79,379.61Zm-8.79,1a2.79,2.79,0,0,0-2.45,2.5l-.6,6.67-.6-6.67a2.79,2.79,0,0,0-2.45-2.5l-5.1-.56,5.1-.56a2.74,2.74,0,0,0,1.67-.82,2.8,2.8,0,0,0,.78-1.69l.6-6.66.6,6.66a2.79,2.79,0,0,0,2.45,2.51l5.1.56ZM159.56,404.9l-8.84-1a2,2,0,0,1-1.78-1.81l-1-11.29a.41.41,0,0,0-.82,0l-1,11.29a2,2,0,0,1-1.78,1.81l-8.84,1a.41.41,0,0,0-.36.41.39.39,0,0,0,.36.4l8.84,1a2,2,0,0,1,1.78,1.81l1,11.28a.41.41,0,0,0,.82,0l1-11.28a2,2,0,0,1,1.78-1.81l8.84-1a.39.39,0,0,0,.36-.4A.41.41,0,0,0,159.56,404.9Zm-8.93,1a2.83,2.83,0,0,0-2.5,2.55l-.61,6.78-.61-6.78a2.83,2.83,0,0,0-2.5-2.55l-5.17-.57,5.17-.57a2.83,2.83,0,0,0,2.5-2.55l.61-6.78.61,6.78a2.83,2.83,0,0,0,2.5,2.55l5.18.57Z" style="fill:#3B82F6;opacity:0.6000000000000001"></path></g></svg>
